<svg width="99" height="50" viewBox="0 0 99 50" fill="none" xmlns="http://www.w3.org/2000/svg">
<mask id="mask0" mask-type="alpha" maskUnits="userSpaceOnUse" x="0" y="7" width="52" height="43">
<path d="M0.0146332 7.99976H51.5202V49.9854H0.0146332V7.99976Z" fill="white"/>
</mask>
<g mask="url(#mask0)">
<path d="M15.3451 37.0239C13.2273 37.0215 11.2334 36.681 9.36171 35.9998C7.4839 35.3168 5.85195 34.3407 4.46756 33.069C3.08171 31.7983 1.99171 30.2715 1.19512 28.4876C0.398293 26.7044 0 24.7127 0 22.512C0 20.312 0.398293 18.3202 1.19512 16.5366C1.99171 14.7537 3.08171 13.2271 4.46756 11.9551C5.85195 10.6846 7.4839 9.70707 9.36171 9.02439C11.2334 8.3439 13.2273 8.00244 15.3451 8.00024H15.3661C17.4839 8.00244 19.4778 8.3439 21.3495 9.02439C22.471 9.4322 23.5027 9.94732 24.4483 10.5649C22.6334 12.4449 21.2544 14.858 20.5049 17.5866C20.4641 17.54 20.4246 17.4927 20.3824 17.4473C19.1893 16.1598 17.5134 15.5144 15.3556 15.5122C15.3593 15.5122 15.3627 15.5122 15.3661 15.5122H15.3451C15.3488 15.5122 15.3522 15.5122 15.3556 15.5122C13.1978 15.5144 11.5222 16.1598 10.329 17.4473C9.1339 18.7376 8.53683 20.4259 8.53683 22.512C8.53683 24.599 9.1339 26.2878 10.329 27.5771C11.5222 28.8656 13.1978 29.5095 15.3556 29.5117C15.3522 29.5117 15.3488 29.512 15.3451 29.512H15.3661C15.3627 29.512 15.3593 29.5117 15.3556 29.5117C17.5134 29.5095 19.1893 28.8656 20.3824 27.5771C20.4517 27.502 20.5188 27.4254 20.5841 27.3476C21.3798 30.0715 22.8041 32.468 24.6637 34.3173C23.6605 34.999 22.5566 35.561 21.3495 35.9998C19.4778 36.681 17.4839 37.0215 15.3661 37.0239H15.3451Z" fill="#16396B"/>
<path d="M47.5649 45.9312C50.2012 43.2183 51.5202 39.2439 51.5202 34.0081V8.68268H43.6663V12.3251H43.5524C43.2115 11.8324 42.7559 11.329 42.1868 10.8168C41.6181 10.3044 40.9351 9.84049 40.1378 9.42268C39.341 9.00561 38.4398 8.6639 37.4349 8.39829C36.4293 8.13317 35.319 7.99976 34.1056 7.99976C32.1322 7.99976 30.3683 8.40829 28.8124 9.22342C27.2568 10.0395 25.939 11.1112 24.8571 12.439C23.7761 13.7676 22.941 15.3037 22.3532 17.049C21.7646 18.7939 21.4715 20.5768 21.4715 22.3983C21.4715 24.4849 21.7929 26.4012 22.4388 28.1466C23.0832 29.8915 24.0039 31.3998 25.1988 32.6705C26.3939 33.9424 27.8256 34.9285 29.4959 35.6302C31.1649 36.3327 33.0239 36.6832 35.0729 36.6832C36.3624 36.6832 37.7381 36.4071 39.1988 35.8576C40.6588 35.308 41.8829 34.369 42.8695 33.0407H42.9837V35.7154C42.9837 37.6876 42.3661 39.3093 41.1339 40.5812C39.9005 41.852 37.9754 42.488 35.3576 42.488C33.6117 42.488 32.0088 42.1651 30.5488 41.5202C29.0876 40.8744 27.6934 40.0022 26.3656 38.9022L21.642 45.9595C23.6527 47.5529 25.8534 48.6246 28.2437 49.1746C30.6337 49.7246 33.0617 50.0002 35.5281 50.0002C40.9151 50.0002 44.9276 48.6429 47.5649 45.9312ZM43.6663 22.3415C43.6663 23.2522 43.4959 24.1156 43.1542 24.9307C42.8129 25.7476 42.329 26.4673 41.7029 27.0934C41.0773 27.7198 40.3461 28.2224 39.5122 28.6015C38.6771 28.9815 37.7854 29.171 36.8368 29.171C35.8502 29.171 34.949 28.9815 34.1339 28.6015C33.3178 28.2224 32.5973 27.7198 31.971 27.0934C31.3454 26.4673 30.8615 25.7476 30.5198 24.9307C30.1788 24.1156 30.0081 23.2522 30.0081 22.3415C30.0081 21.4307 30.1788 20.5681 30.5198 19.752C30.8615 18.9361 31.3454 18.2151 31.971 17.5895C32.5973 16.9632 33.3178 16.4605 34.1339 16.081C34.949 15.7022 35.8502 15.5122 36.8368 15.5122C37.7854 15.5122 38.6771 15.7022 39.5122 16.081C40.3461 16.4605 41.0773 16.9632 41.7029 17.5895C42.329 18.2151 42.8129 18.9361 43.1542 19.752C43.4959 20.5681 43.6663 21.4307 43.6663 22.3415Z" fill="#16396B"/>
</g>
<path d="M74.4556 8.35756L74.1988 8.28415C73.781 8.17049 73.3254 8.09488 72.8329 8.05659C72.339 8.01927 71.8456 7.99976 71.3529 7.99976C69.4554 7.99976 67.8815 8.42658 66.629 9.28049C65.3776 10.1339 64.2963 11.4144 63.3856 13.122H63.2717V8.68268H54.7349V36.3415H63.2717V24.7883C63.2717 23.4227 63.3471 22.1705 63.4995 21.0324C63.6507 19.8941 63.9829 18.918 64.4951 18.1017C65.0073 17.2861 65.7373 16.6505 66.6863 16.1949C67.1351 15.9795 67.939 15.7893 68.541 15.6759C69.7449 12.6076 71.7876 10.0627 74.1646 8.54415" fill="#16396B"/>
<path d="M98.8468 36.3415V0.176098H90.3102V11.6424H90.1961C89.2098 10.3144 87.9485 9.37561 86.4122 8.82488C84.8754 8.27537 83.2151 7.99976 81.4324 7.99976C79.4588 7.99976 77.6949 8.40829 76.1398 9.22342C74.5834 10.0395 73.2656 11.13 72.1844 12.4959C71.1027 13.8615 70.268 15.4266 69.6802 17.1912C69.0912 18.9551 68.798 20.8046 68.798 22.74C68.798 24.8266 69.1195 26.7432 69.7654 28.4876C70.4102 30.2332 71.3305 31.7417 72.5254 33.0124C73.7207 34.2837 75.1524 35.2698 76.8224 35.9715C78.4915 36.6732 80.351 37.0241 82.3998 37.0241C83.3473 37.0241 84.268 36.891 85.1598 36.6259C86.051 36.3602 86.8671 36.0198 87.6071 35.6015C88.3466 35.1846 88.9917 34.7198 89.542 34.2073C90.0912 33.6951 90.5381 33.1929 90.8798 32.699H90.9929V36.3415H98.8468ZM90.9929 22.512C90.9929 24.599 90.3959 26.2878 89.2005 27.5771C88.0056 28.8676 86.3266 29.512 84.1641 29.512C82.0012 29.512 80.3222 28.8676 79.1273 27.5771C77.932 26.2878 77.3349 24.599 77.3349 22.512C77.3349 20.4259 77.932 18.7373 79.1273 17.4473C80.3222 16.1578 82.0012 15.5122 84.1641 15.5122C86.3266 15.5122 88.0056 16.1578 89.2005 17.4473C90.3959 18.7373 90.9929 20.4259 90.9929 22.512Z" fill="#16396B"/>
</svg>
