<?xml version="1.0" encoding="utf-8"?>
<!-- Generator: Adobe Illustrator 26.0.3, SVG Export Plug-In . SVG Version: 6.00 Build 0)  -->
<svg version="1.1" id="Ebene_1" xmlns="http://www.w3.org/2000/svg" xmlns:xlink="http://www.w3.org/1999/xlink" x="0px" y="0px"
	 viewBox="0 0 1919 671" style="enable-background:new 0 0 1919 671;" xml:space="preserve">
<style type="text/css">
	.st0{opacity:0.1;}
	.st1{opacity:0.1;clip-path:url(#SVGID_00000165208749426748739060000014369190451488149152_);}
	.st2{fill:none;stroke:#16396B;stroke-miterlimit:10;}
	.st3{opacity:0.17;clip-path:url(#SVGID_00000028312423389920128120000000780670801654395796_);}
</style>
<g class="st0">
	<defs>
		<rect id="SVGID_1_" x="-2311" y="46" class="st0" width="7624" height="635.1"/>
	</defs>
	<clipPath id="SVGID_00000098180047195816982820000005221590042128392348_">
		<use xlink:href="#SVGID_1_"  style="overflow:visible;"/>
	</clipPath>
	<g style="opacity:0.1;clip-path:url(#SVGID_00000098180047195816982820000005221590042128392348_);">
		<path class="st2" d="M5202.1,694.6h-7418.1 M5217.1,702c-11,10.9-148.4,14.6-156.2,13.8c-20.9-2.2-471.7-74.3-510-74.3
			c-38.3,0-520.8,78.9-563.9,78.9c-43,0-733.4-114.9-786.4-114.9c-27.8,0-305.4,16.8-318.4,31.5c-11.9,13.4-302.3,32.4-327.7,29.1
			c-22.3-3-265.4-26.8-286.1-9.7c-14.9,12.4-433.7,68.3-480.8,68.3c-47.1,0-646.8-111.7-694.5-111.7c-47.7,0-421,58.4-460.5,58.4
			S269,635.4,247.4,626.6c-28.7-11.6-289.1,6.1-306.8,18c-10.2,6.8-139.9,4.2-152.5,5.5c-11,1-117.8,5.5-124,11.5
			c-15.1,14.1-233.2,17.5-246.7-0.7c-13.3-18.1-359.6-46.2-393-49.7c-30.6-3.2-338.8,21-347.6,37.6
			c-10.4,19.6-451.1,54.5-479.1,62.8c-32.8,9.8-407.6,2.7-426.1-12.5L5217.1,702z M5214.9,701c-9.4,9.4-148.4,12.5-155.1,11.8
			c-17.9-1.8-479.1-63.8-511.9-63.8c-32.8,0-528.8,67.6-565.7,67.6c-36.9,0-744.3-98.4-789.7-98.4c-23.9,0-305.6,14.4-316.9,27.1
			c-10.2,11.5-303.8,27.9-325.7,25c-19-2.5-265.8-23-283.6-8.3c-12.7,10.6-442.3,58.5-482.7,58.5c-40.4,0-660.7-95.7-701.7-95.7
			s-427.4,50.1-461.3,50.1c-33.9,0-365.9-30.8-384.2-38.3C211.8,626.6-52.8,642-68,652c-8.8,5.8-139.9,3.6-150.7,4.7
			c-9.4,0.9-117.8,4.7-123.3,9.8c-12.9,12-233.8,15-245.4-0.6c-11.5-15.5-364-39.6-392.7-42.6c-26.2-2.7-339.3,18.1-346.9,32.3
			c-9,16.7-454.7,46.7-478.6,53.8c-28.1,8.3-405.7,2.3-421.6-10.7L5214.9,701z M5212.9,699.9c-7.9,7.8-148.4,10.3-154,9.8
			c-14.9-1.5-486.6-53.1-513.9-53.1S4008.2,713,3977.5,713c-30.8,0-755.1-82.1-793-82.1c-19.8,0-305.7,12.1-315.1,22.5
			c-8.5,9.5-305.4,23.2-323.5,20.8c-15.9-2-266.1-19.2-280.9-6.9c-10.7,8.9-451,48.8-484.7,48.8s-674.7-79.8-708.8-79.8
			c-34.2,0-433.8,41.7-462.1,41.7c-28.3,0-367.9-25.7-383.3-31.9c-20.6-8.3-289.4,4.4-302.1,12.8c-7.4,4.9-140.1,3.1-149,3.9
			c-7.9,0.7-117.9,3.9-122.5,8.2c-10.8,10.1-234.3,12.5-244-0.6c-9.6-13-368.4-33-392.2-35.5c-22-2.3-339.6,15-346.1,26.9
			c-7.4,14-458.2,38.9-478.1,44.8c-23.4,6.9-403.7,1.9-417.1-9L5212.9,699.9z M5210.7,698.8c-6.3,6.3-148.5,8.3-152.9,7.8
			c-11.9-1.2-494-42.5-515.8-42.5c-21.8,0-544.7,45.1-569.4,45.1s-766.1-65.7-796.2-65.7c-15.9,0-306,9.7-313.4,18.1
			c-6.8,7.6-307,18.5-321.4,16.6c-12.7-1.7-266.6-15.3-278.4-5.5c-8.5,7-459.8,39.1-486.6,39.1s-688.7-63.8-716-63.8
			s-440.3,33.4-462.9,33.4S227.5,660.9,215.3,656c-16.5-6.6-289.5,3.5-299.8,10.2c-5.8,3.9-140.1,2.4-147.3,3.1
			c-6.3,0.6-117.9,3.1-121.7,6.6c-8.6,8.1-234.9,10-242.6-0.5c-7.7-10.3-372.9-26.4-391.9-28.4c-17.6-1.8-340.1,12-345.1,21.5
			c-6,11.1-461.6,31.1-477.7,35.9c-18.8,5.6-401.8,1.6-412.5-7.2L5210.7,698.8z M5208.5,697.8c-4.7,4.7-148.5,6.3-151.8,5.9
			c-8.9-0.9-501.4-31.8-517.9-31.8c-16.3,0-552.7,33.9-571.2,33.9c-18.5,0-776.9-49.2-799.5-49.2c-11.9,0-306.2,7.2-311.9,13.5
			c-5.2,5.8-308.4,13.9-319.4,12.5c-9.6-1.3-267.1-11.5-275.9-4.1c-6.4,5.3-468.4,29.3-488.6,29.3c-20.1,0-702.7-47.9-723.1-47.9
			c-20.6,0-446.7,25-463.7,25S213.2,669.6,204,665.8c-12.2-5-289.7,2.6-297.4,7.7c-4.4,3-140.1,1.8-145.4,2.3
			c-4.7,0.5-118.1,2.4-120.7,4.9c-6.4,6-235.4,7.5-241.2-0.3c-5.8-7.7-377.3-19.8-391.6-21.3c-13.2-1.4-340.4,9-344.2,16.1
			c-4.4,8.4-465.3,23.3-477.2,26.9c-14.1,4.2-399.9,1.1-407.9-5.3L5208.5,697.8z M5206.5,696.7c-3.1,3.2-148.5,4.2-150.7,4
			c-6-0.6-508.9-21.3-519.7-21.3c-11,0-560.7,22.5-573,22.5s-787.8-32.9-802.9-32.9c-8,0-306.3,4.8-310.1,9
			c-3.5,3.9-310,9.3-317.2,8.3c-6.3-0.8-267.4-7.6-273.4-2.7c-4.2,3.5-477,19.6-490.5,19.6c-13.5,0-716.6-31.9-730.3-31.9
			c-13.7,0-453,16.7-464.3,16.7c-11.3,0-374.5-10.2-380.6-12.7c-8.2-3.3-290,1.8-295,5.1c-2.8,1.9-140.2,1.2-143.8,1.6
			c-3.1,0.3-118.1,1.6-120,3.3c-4.4,4-235.8,5-239.8-0.2c-3.8-5.1-381.7-13.2-391.3-14.2c-8.8-0.9-340.9,6-343.4,10.8
			c-3,5.6-468.7,15.6-476.7,18c-9.4,2.7-398,0.8-403.4-3.5L5206.5,696.7z M5204.3,695.6c-1.6,1.6-148.5,2-149.6,1.9
			c-3-0.3-516.3-10.6-521.8-10.6c-5.5,0-568.7,11.3-574.9,11.3c-6.1,0-798.6-16.4-806.1-16.4c-3.9,0-306.5,2.4-308.4,4.5
			c-1.7,1.9-311.5,4.7-315.1,4.2c-3.1-0.5-267.9-3.9-270.9-1.4c-2.2,1.8-485.8,9.8-492.4,9.8c-6.8,0-730.6-15.9-737.4-15.9
			s-459.4,8.3-465.1,8.3c-5.7,0-376.7-5.1-379.7-6.4c-4.1-1.7-290,0.9-292.5,2.6c-1.4,1-140.2,0.6-141.9,0.8
			c-1.6,0.1-118.2,0.8-119,1.6c-2.2,2-236.5,2.5-238.4-0.1c-1.9-2.6-386.3-6.6-391-7c-4.4-0.5-341.2,3-342.5,5.3
			c-1.4,2.7-472.2,7.7-476.1,9c-4.7,1.4-396.2,0.3-398.8-1.8L5204.3,695.6z"/>
		<path class="st2" d="M5218.4,702.7c-12.4,12.5-148.4,16.5-157.3,15.7c-23.9-2.4-464.3-84.6-508-84.6s-512.8,89.8-562,89.8
			c-49.1,0-722.6-130.7-783.1-130.7c-31.7,0-305.2,19.1-320.2,35.9c-13.7,15.2-300.8,36.9-329.7,33.1c-25.4-3.3-265-30.6-288.6-10.9
			c-16.9,14.1-425.1,77.8-478.8,77.8c-53.9,0-632.8-127.1-687.4-127.1c-54.6,0-414.7,66.5-459.9,66.5c-45.2,0-361.5-40.9-386.1-50.8
			c-32.8-13.2-288.9,7-309.2,20.5c-11.6,7.7-139.9,4.9-154.4,6.1c-12.6,1.1-117.6,6.3-125,13.1c-17.3,16-232.7,19.9-248.2-0.8
			c-15.4-20.6-355.2-52.5-393.3-56.5c-35-3.6-338.5,23.9-348.6,42.9c-11.8,22.2-447.7,62-479.5,71.4c-37.5,11-409.5,3.1-430.7-14.2
			 M5231.3,709c-21.8,21.8-148.1,29-163.8,27.4c-41.8-4.2-419.7-148-496.2-148c-76.5,0-464.9,157.1-551,157.1
			c-86,0-657.4-228.7-763.3-228.7c-55.6,0-304.2,33.5-330.4,62.8c-23.9,26.7-291.6,64.6-342.3,58c-44.4-5.8-262.5-53.4-303.8-19.2
			c-29.8,24.7-372.9,136.1-467.1,136.1c-94.2,0-548.9-222.4-644.6-222.4c-95.6,0-376.2,116.4-455.4,116.4s-348.6-71.5-391.6-88.9
			c-57.5-23.2-288,12.3-323.5,35.7c-20.4,13.5-139.7,8.4-164.9,10.8c-22,2-117.1,10.9-129.9,22.9c-30.1,28.1-229.6,34.9-256.6-1.5
			c-26.9-36-328.5-91.9-395.4-98.9c-61.4-6.5-336.2,41.8-353.9,75c-20.7,38.9-426.6,108.5-482.5,124.9c-65.6,19.3-421,5.3-458-24.9
			L5231.3,709z M5229.1,708c-20.3,20.2-148.2,26.8-162.7,25.5c-38.8-4-427.1-137.4-498.2-137.4c-71,0-473,146-552.9,146
			c-79.9,0-668.3-212.4-766.6-212.4c-51.7,0-304.3,31.1-328.6,58.3c-22.1,24.8-293.2,60-340.3,53.8c-41.3-5.5-262.9-49.6-301.3-17.8
			c-27.6,22.8-381.6,126.3-469,126.3c-87.5,0-562.9-206.4-651.6-206.4S775.2,651.8,701.7,651.8c-73.5,0-350.8-66.4-390.7-82.5
			c-53.4-21.5-288.1,11.4-321.1,33.2c-19,12.5-139.7,7.8-163.1,10c-20.4,1.8-117.1,10.1-129.1,21.1c-28.1,26-230.2,32.4-255.2-1.4
			c-25-33.4-332.9-85.4-395.1-91.9c-57-6-336.7,38.9-353,69.7c-19.3,36-430.1,100.7-482.1,116.1c-60.9,18-419.1,5-453.5-23.1
			L5229.1,708z M5227,706.9c-18.7,18.6-148.2,24.8-161.6,23.4c-35.8-3.6-434.6-126.9-500.1-126.9c-65.6,0-481,134.7-554.8,134.7
			c-73.8,0-679.1-196.1-769.9-196.1c-47.6,0-304.5,28.8-326.9,53.8c-20.4,22.8-294.7,55.4-338.2,49.7c-38.2-5-263.3-45.8-298.8-16.5
			c-25.6,21.1-390.4,116.6-471.1,116.6s-576.9-190.5-658.9-190.5c-82,0-389.1,99.7-456.9,99.7c-67.8,0-353-61.3-389.7-76.2
			c-49.1-19.8-288.3,10.6-318.8,30.6c-17.4,11.6-139.7,7.3-161.3,9.2c-18.8,1.7-117.3,9.3-128.3,19.6c-25.9,24-230.7,29.9-253.7-1.3
			c-22.9-30.9-337.3-78.8-394.7-84.8c-52.6-5.6-337,35.9-352.2,64.2c-17.7,33.3-433.7,93-481.6,107.1
			c-56.2,16.6-417.2,4.7-448.9-21.4L5227,706.9z M5224.8,705.8c-17.1,17.2-148.2,22.7-160.5,21.5c-32.8-3.3-442-116.3-502.1-116.3
			s-488.8,123.5-556.5,123.5s-689.9-179.7-773.2-179.7c-43.7,0-304.6,26.3-325.4,49.3c-18.7,20.9-296.1,50.8-336,45.6
			c-34.9-4.5-263.8-41.9-296.3-15.1c-23.4,19.3-399,106.9-472.9,106.9c-74,0-590.9-174.7-665.9-174.7c-75.2,0-395.5,91.4-457.6,91.4
			c-62.2,0-355-56.2-388.9-69.8C244.5,570.1,1.1,598-26.9,616.4c-16,10.6-139.7,6.7-159.5,8.4c-17.3,1.6-117.3,8.5-127.5,18
			c-23.7,22.1-231.1,27.4-252.3-1.1c-21-28.3-341.8-72.2-394.4-77.8c-48.2-5.1-337.3,32.9-351.3,58.9
			c-16.3,30.6-437.1,85.3-481.1,98.2c-51.7,15.2-415.3,4.2-444.4-19.6L5224.8,705.8z M5222.6,704.8
			c-15.6,15.6-148.2,20.7-159.4,19.6c-29.8-3.1-449.4-105.7-504-105.7c-54.6,0-496.8,112.2-558.4,112.2
			c-61.5,0-700.9-163.4-776.5-163.4c-39.7,0-304.9,23.9-323.6,44.9c-17.1,19.1-297.7,46.2-334,41.4c-31.7-4.2-264.1-38.2-293.6-13.8
			c-21.2,17.6-407.6,97.2-475,97.2c-67.2,0-604.8-158.8-673.1-158.8c-68.3,0-401.8,83.1-458.3,83.1c-56.5,0-357.2-51.2-388-63.5
			c-41-16.5-288.6,8.8-313.9,25.5c-14.6,9.7-139.9,6-157.8,7.7c-15.7,1.5-117.5,7.7-126.6,16.3c-21.7,20-231.8,24.9-251.1-1
			c-19.2-25.7-346.2-65.6-394-70.6c-43.8-4.5-337.8,29.9-350.3,53.5c-14.9,27.7-440.6,77.4-480.6,89.2
			c-46.9,13.9-413.4,3.9-439.8-17.7L5222.6,704.8z M5220.6,703.7c-14,14-148.4,18.6-158.3,17.6c-26.8-2.7-456.9-95.2-506.1-95.2
			c-49.1,0-504.8,101.1-560.2,101.1c-55.4,0-711.8-147.1-779.8-147.1c-35.8,0-305.1,21.5-321.9,40.4
			c-15.4,17.2-299.3,41.5-331.9,37.3c-28.6-3.8-264.6-34.3-291.1-12.4c-19.2,15.8-416.4,87.4-476.9,87.4
			c-60.4,0-618.8-142.9-680.2-142.9c-61.5,0-408.2,74.8-459.1,74.8c-50.9,0-359.3-46-387.1-57.2c-36.9-14.9-288.8,7.8-311.7,23
			c-13,8.6-139.9,5.5-156.1,6.9c-14.1,1.3-117.5,7-125.8,14.7c-19.5,18.1-232.2,22.4-249.7-0.9c-17.3-23.2-350.6-59.1-393.7-63.5
			c-39.4-4.1-338.1,26.9-349.5,48.2c-13.3,25-444.2,69.7-480.2,80.4c-42.2,12.5-411.4,3.4-435.3-16L5220.6,703.7z"/>
		<path class="st2" d="M5234.1,710.6c-23.4,23.4-148.1,31-164.9,29.3c-44.8-4.5-412.3-158.8-494.3-158.8
			c-82,0-456.9,168.6-549.3,168.6s-646.6-245.4-760-245.4c-59.5,0-304,35.9-332.1,67.4c-25.6,28.6-290,69.3-344.5,62.2
			c-47.6-6.3-262.1-57.3-306.4-20.6c-31.9,26.5-364.3,146-465.2,146c-101,0-535-238.6-637.3-238.6c-102.5,0-369.9,124.9-454.7,124.9
			c-84.8,0-346.4-76.7-392.6-95.4C271.3,525.4,45,563.4,7,588.5c-21.8,14.4-139.6,9.1-166.6,11.6c-23.6,2.2-117,11.7-130.8,24.4
			c-32.3,30.1-229.1,37.4-258-1.6c-28.7-38.7-324.1-98.6-395.7-106.2c-65.8-6.9-335.9,44.9-354.7,80.5
			c-22.3,41.7-423.2,116.4-483.2,134.1c-70.3,20.8-423,5.8-462.7-26.7 M5247,717c-32.8,32.7-147.9,43.5-171.3,41.2
			c-62.6-6.4-367.7-222.4-482.4-222.4c-114.8,0-409,236.1-538.3,236.1c-129.2,0-581.4-343.7-740.2-343.7
			c-83.4,0-302.7,50.4-342.2,94.4c-35.8,40-280.9,97.1-357.1,87.1c-66.7-8.8-259.6-80.3-321.6-28.9
			c-44.6,37.1-312.2,204.4-453.5,204.4c-141.3,0-451.1-334-594.5-334c-143.5,0-331.5,174.8-450.2,174.8
			c-118.7,0-333.5-107.5-398-133.6c-86.2-34.8-286.9,18.4-339.9,53.7c-30.6,20.2-139.4,12.7-177.1,16.1
			c-33.1,3.1-116.5,16.4-135.8,34.3c-45.2,42.2-226,52.4-266.5-2.2c-40.2-54.1-297.4-138-397.7-148.6c-92-9.7-333.5,62.9-360,112.7
			c-31.1,58.3-402.1,162.9-486,187.7c-98.4,29.1-434.5,8.1-490.1-37.4L5247,717z M5244.8,715.8c-31.2,31.3-147.9,41.4-170.2,39.1
			c-59.7-6-375.1-211.8-484.4-211.8S4173.1,768,4050.2,768c-123.1,0-592.3-327.3-743.5-327.3c-79.5,0-303.1,48-340.4,89.8
			c-34.1,38.2-282.3,92.4-354.9,82.9c-63.4-8.3-260-76.5-319.1-27.5c-42.6,35.2-320.9,194.6-455.4,194.6
			c-134.6,0-465.1-318.1-601.7-318.1S897.5,629,784.3,629c-113.1,0-335.6-102.4-397.1-127.2c-82-33.1-287,17.6-337.8,51.2
			C20.2,572.3-90,565.1-125.9,568.3c-31.6,2.8-116.7,15.6-135,32.6c-43.2,40.1-226.4,49.9-265.1-2
			c-38.3-51.5-301.8-131.4-397.4-141.5c-87.8-9.2-333.8,59.9-359.1,107.3c-29.7,55.6-405.6,155.2-485.5,178.8
			c-93.7,27.7-432.6,7.7-485.5-35.6L5244.8,715.8z M5242.7,714.8c-29.7,29.7-147.9,39.3-169.1,37.2
			c-56.7-5.8-382.5-201.2-486.3-201.2s-425.1,213.6-541.9,213.6c-116.8,0-603.1-310.9-746.8-310.9c-75.5,0-303.2,45.5-338.7,85.4
			c-32.3,36.3-283.9,87.8-352.8,78.8c-60.3-8-260.5-72.6-316.5-26c-40.7,33.4-329.9,184.8-457.6,184.8
			c-127.8,0-479.1-302.3-608.9-302.3c-129.8,0-344.2,158.2-451.6,158.2s-337.7-97.2-396.2-120.8c-77.9-31.5-287.2,16.7-335.2,48.5
			c-27.6,18.3-139.4,11.5-173.7,14.7c-30,2.7-116.7,14.8-134.1,31c-41,38.1-226.9,47.4-263.6-1.9c-36.4-49-306.2-124.9-397.1-134.5
			c-83.2-8.8-334.3,57-358.3,102c-28.1,52.9-409.2,147.4-485,169.8c-89.2,26.4-430.7,7.3-480.9-33.9L5242.7,714.8z M5240.5,713.8
			c-28.1,28.1-148.1,37.3-168,35.2c-53.7-5.5-390-190.6-488.3-190.6c-98.3,0-433.1,202.4-543.8,202.4
			c-110.7,0-614-294.6-750.1-294.6c-71.4,0-303.4,43.1-337.1,80.8c-30.6,34.3-285.5,83.2-350.8,74.6c-57.2-7.5-260.8-68.8-314-24.7
			c-38.3,31.7-338.2,175.2-459.3,175.2c-121.1,0-493-286.4-616-286.4S862.5,635.6,760.8,635.6c-101.8,0-340-92.1-395.2-114.5
			c-73.8-29.8-287.3,15.8-332.9,46C6.4,584.5-106.9,578.1-139.3,581c-28.4,2.6-116.8,14-133.3,29.3c-38.8,36.2-227.5,44.9-262.2-1.8
			c-34.4-46.4-310.7-118.3-396.8-127.3c-78.8-8.3-334.6,53.9-357.4,96.6c-26.7,50-412.7,139.7-484.6,160.9
			c-84.5,24.9-428.7,6.9-476.4-32.1L5240.5,713.8z M5238.3,712.7c-26.5,26.5-148.1,35.2-166.9,33.3
			c-50.7-5.1-397.4-180.1-490.4-180.1c-92.9,0-440.9,191.1-545.5,191.1c-104.6,0-624.8-278.2-753.4-278.2
			c-67.5,0-303.5,40.7-335.4,76.4c-29,32.4-287,78.6-348.6,70.5c-54-7-261.3-65-311.5-23.3c-36.1,30-346.9,165.4-461.3,165.4
			c-114.3,0-507-270.5-623.2-270.5S845.1,638.9,749,638.9s-342.1-87-394.4-108.1C284.8,502.7,67,545.7,24,574.2
			c-24.8,16.4-139.6,10.3-170.2,13.1c-26.7,2.4-116.8,13.2-132.4,27.7c-36.7,34.1-228,42.4-260.8-1.7
			c-32.5-43.8-315.1-111.7-396.3-120.3c-74.6-7.8-335.1,50.9-356.6,91.2c-25.1,47.3-416.1,131.9-484.1,152
			c-79.8,23.5-426.8,6.6-471.8-30.2L5238.3,712.7z M5236.3,711.6c-25,25-148.1,33.1-166,31.4c-47.7-4.9-404.8-169.4-492.3-169.4
			s-448.9,179.8-547.4,179.8c-98.5,0-635.8-261.8-756.7-261.8c-63.6,0-303.7,38.3-333.7,71.8c-27.3,30.6-288.6,74-346.6,66.4
			c-50.9-6.7-261.8-61.2-308.9-21.9c-34.1,28.2-355.6,155.7-463.2,155.7s-521-254.5-630.3-254.5c-109.3,0-363.5,133.2-453.9,133.2
			c-90.4,0-344.3-81.9-393.5-101.7c-65.6-26.5-287.7,14.1-328.2,40.9c-23.4,15.5-139.6,9.7-168.3,12.3
			c-25.3,2.3-117,12.5-131.6,26.1c-34.5,32.1-228.6,39.9-259.4-1.7c-30.6-41.3-319.5-105.2-396-113.2c-70.2-7.4-335.4,48-355.7,85.8
			c-23.7,44.4-419.7,124.1-483.6,143c-75.1,22.2-424.9,6.1-467.3-28.5L5236.3,711.6z"/>
		<path class="st2" d="M5249.8,716.4c-34.4,34.3-147.9,45.5-172.4,43c-65.6-6.6-360.2-232.6-480.3-232.6
			c-120.1,0-401,246.9-536.4,246.9s-570.5-359.5-736.7-359.5c-87.3,0-302.6,52.6-343.7,98.7c-37.5,41.9-279.3,101.5-359.1,91.1
			c-69.9-9.1-259.1-84-324.1-30.1c-46.8,38.8-303.5,213.8-451.4,213.8c-147.9,0-437-349.3-587.3-349.3s-325,182.9-449.4,182.9
			S477.6,508.8,410,481.5c-90.3-36.4-286.7,19.3-342.3,56.2C35.6,559-71.8,551-111.2,554.6c-34.7,3.2-116.4,17.2-136.6,35.8
			c-47.4,44.1-225.3,54.8-267.7-2.3c-42.1-56.6-292.8-144.4-398-155.4c-96.4-10.1-333,65.8-360.8,117.9
			c-32.7,61-398.7,170.4-486.5,196.3c-103.2,30.5-436.4,8.4-494.6-39.1 M5262.7,722.8c-43.7,43.7-147.6,57.9-178.9,54.7
			c-83.5-8.4-315.6-296-468.6-296c-152.9,0-353.1,314.3-525.2,314.3c-172.2,0-505.3-457.5-717-457.5c-111.2,0-301.5,67-353.9,125.6
			c-47.7,53.3-270.1,129.3-371.5,116c-88.9-11.6-256.7-106.9-339.3-38.4c-59.5,49.3-251.4,272-439.7,272s-353.1-444.7-544.4-444.7
			s-286.6,232.7-444.8,232.7c-158.3,0-318.3-143.1-404.3-177.8c-114.8-46.3-285.6,24.6-356.6,71.4C77.7,522.1-20.6,512-71,516.6
			c-44.1,4-115.9,21.8-141.6,45.6c-60.5,56-222.2,69.7-276.2-2.8c-53.7-72.1-266.1-183.7-400.1-197.8
			c-122.8-12.8-330.7,83.8-366.2,150.1c-41.5,77.6-377.6,216.9-489.4,249.9c-131.3,38.8-447.8,10.8-521.9-49.8L5262.7,722.8z
			 M5260.5,721.8c-42.1,42.1-147.6,55.8-177.8,52.7c-80.5-8.2-323-285.5-470.6-285.5c-147.4,0-361,303.1-527.1,303.1
			c-166.1,0-516.1-441.2-720.3-441.2c-107.2,0-301.6,64.6-352.2,121.1c-46,51.4-271.7,124.6-369.5,111.7
			c-85.7-11.3-257.1-103-336.8-37.1c-57.5,47.5-260,262.4-441.7,262.4c-181.5,0-367.1-428.8-551.6-428.8s-293,224.4-445.6,224.4
			c-152.6,0-320.5-138-403.5-171.4c-110.7-44.6-285.8,23.6-354.2,68.9c-39.4,26-139.1,16.4-187.6,20.8c-42.6,3.9-116,21-140.7,44
			c-58.3,54.1-222.7,67.2-274.8-2.8c-51.7-69.5-270.7-177.2-399.8-190.8c-118.4-12.4-331.2,80.7-365.2,144.6
			c-40,74.9-381.1,209.2-489,241c-126.6,37.4-445.9,10.3-517.4-48L5260.5,721.8z M5258.4,720.7c-40.5,40.5-147.8,53.8-176.6,50.8
			c-77.6-7.8-330.5-274.9-472.5-274.9c-141.9,0-369,291.8-529,291.8c-160,0-527-424.8-723.6-424.8c-103.2,0-301.8,62.2-350.5,116.6
			c-44.3,49.6-273.1,119.9-367.4,107.7c-82.6-10.8-257.5-99.2-334.3-35.6c-55.4,45.6-268.8,252.5-443.7,252.5
			c-174.9,0-381.1-412.9-558.7-412.9s-299.3,216.1-446.2,216.1S533.2,475.2,453.3,443c-106.6-43-285.9,22.8-351.9,66.4
			c-37.8,25-139.1,15.7-185.9,20c-41,3.8-116,20.2-139.9,42.4c-56.1,52.1-223.3,64.7-273.4-2.7c-49.8-66.8-275.1-170.6-399.5-183.7
			c-114-11.9-331.5,77.8-364.3,139.3c-38.5,72.2-384.5,201.4-488.5,232c-122,35.9-443.9,10-512.8-46.3L5258.4,720.7z M5256.2,719.6
			c-38.9,39-147.8,51.7-175.6,48.9c-74.6-7.5-337.9-264.3-474.5-264.3c-136.6,0-377,280.6-530.7,280.6
			c-153.7,0-537.8-408.5-726.9-408.5c-99.2,0-302,59.8-348.7,112.1c-42.6,47.6-274.6,115.4-365.4,103.5
			c-79.3-10.5-257.8-95.4-331.8-34.2c-53.2,44.1-277.5,242.9-445.6,242.9c-168.2,0-395.1-397-565.9-397s-305.7,207.8-447,207.8
			S519.4,483.6,442.5,452.7c-102.5-41.3-286.1,21.9-349.5,63.8c-36.4,24.1-139.3,15.1-184.2,19.2c-39.4,3.6-116.2,19.4-139.1,40.7
			c-54,50-223.8,62.2-272-2.6c-47.9-64.3-279.5-164-399-176.7c-109.6-11.5-331.9,74.8-363.5,133.9
			c-37.1,69.3-388.2,193.7-487.9,223.2c-117.3,34.6-442,9.7-508.3-44.4L5256.2,719.6z M5254,718.6c-37.4,37.4-147.8,49.7-174.5,47
			c-71.6-7.3-345.3-253.7-476.4-253.7s-385,269.4-532.6,269.4s-548.6-392.1-730.2-392.1c-95.3,0-302.3,57.4-347.2,107.7
			c-40.8,45.7-276.2,110.7-363.2,99.4c-76.2-10-258.3-91.6-329.1-32.9c-51,42.3-286.1,233.2-447.5,233.2
			c-161.4,0-409-381.2-573-381.2S968.3,614.8,832.7,614.8c-135.7,0-326.9-122.7-400.7-152.3c-98.5-39.7-286.4,21-347,61.3
			c-35,23.1-139.3,14.6-182.5,18.4c-37.8,3.4-116.2,18.6-138.3,39.1c-51.8,48.1-224.2,59.8-270.5-2.5
			c-46-61.7-283.9-157.6-398.7-169.6c-105.2-11-332.3,71.7-362.6,128.6c-35.5,66.6-391.6,185.9-487.4,214.2
			c-112.6,33.2-440.1,9.2-503.7-42.7L5254,718.6z M5252,717.6c-35.8,35.8-147.8,47.5-173.5,44.9c-68.6-6.9-352.8-243.2-478.4-243.2
			c-125.6,0-393,258.2-534.5,258.2c-141.5,0-559.6-375.8-733.4-375.8c-91.4,0-302.4,55-345.4,103.1
			c-39.3,43.8-277.8,106.2-361.1,95.2c-73-9.5-258.8-87.8-326.6-31.5c-49,40.5-294.7,223.5-449.5,223.5
			c-154.7,0-423-365.3-580.2-365.3c-157.2,0-318.6,191.2-448.6,191.2S491.5,500.3,420.8,471.8c-94.4-38-286.6,20.1-344.7,58.7
			c-33.4,22.2-139.3,13.9-180.6,17.6c-36.3,3.3-116.4,17.8-137.4,37.5c-49.6,46-224.9,57.3-269.1-2.4
			c-44-59.2-288.4-151-398.4-162.5c-100.8-10.6-332.6,68.8-361.6,123.2c-34.1,63.8-395.1,178.1-486.9,205.3
			c-107.9,31.8-438.2,8.9-499.2-40.9L5252,717.6z"/>
		<path class="st2" d="M5263.9,724.4c-45.2,45.2-147.6,60-179.9,56.7c-86.5-8.8-308.2-306.9-466.7-306.9
			c-158.4,0-345.1,325.8-523.5,325.8c-178.4,0-494.5-474.3-713.7-474.3c-115.1,0-301.3,69.5-355.5,130.2
			c-49.5,55.2-268.5,133.9-373.7,120.2c-92-12.1-256.3-110.8-341.8-39.8c-61.7,51.2-242.8,282-437.8,282s-339.2-461-537.3-461
			S1053.9,598.6,890,598.6S573.9,450.3,484.7,414.4c-118.9-48-285.5,25.5-358.9,74.1c-42.2,28-139.1,17.5-191.3,22.3
			c-45.7,4.2-115.9,22.6-142.4,47.3c-62.7,58.1-221.7,72.3-277.6-3c-55.6-74.7-261.8-190.5-400.4-205.1
			c-127-13.3-330.4,86.9-367,155.5c-43,80.6-374,224.9-489.9,259.1c-136,40.1-449.7,11.1-526.5-51.6 M5276.8,730.7
			c-54.6,54.6-147.4,72.4-186.4,68.4c-104.4-10.6-263.6-370.4-454.9-370.4S4338.3,822,4123,822c-215.3,0-429.1-572.4-693.9-572.4
			c-139,0-300.1,83.8-365.7,157.1c-59.7,66.7-259.2,161.7-386.3,145.1c-111.2-14.6-253.8-133.7-357.1-48
			c-74.4,61.7-190.6,340.5-426,340.5c-235.4,0-255.3-556.6-494.5-556.6S1158,579,960,579c-197.8,0-303.2-179.1-410.8-222.5
			c-143.5-57.9-284.5,30.7-373.2,89.4C125,479.6,37.2,467-25.8,472.8c-55.1,5-115.3,27.3-147.4,57.1
			c-75.5,70.1-218.4,87.2-286.1-3.6c-67-90.2-235.1-230-402.4-247.5c-153.4-16.1-328,104.8-372.1,187.7
			c-51.8,97.2-353.1,271.4-492.9,312.6c-164.1,48.4-461.2,13.5-554-62.3L5276.8,730.7z M5274.6,729.7
			c-53.1,53.1-147.4,70.4-185.3,66.5c-101.4-10.2-271-359.8-456.8-359.8c-185.8,0-305.1,382-514.2,382c-209.1,0-440.1-556-697.2-556
			c-135,0-300.4,81.4-364,152.7c-57.9,64.8-260.8,157-384.1,140.9c-107.9-14.2-254.2-129.9-354.6-46.6
			c-72.4,59.9-199.3,330.7-428,330.7c-228.8-0.1-269.4-540.7-501.7-540.7c-232.2,0-248.1,282.8-440.3,282.8S643.1,408.2,538.6,366
			c-139.4-56.3-284.7,29.9-370.9,86.9c-49.6,32.9-139,20.6-200,26.1c-53.5,4.9-115.4,26.5-146.7,55.5c-73.3,68.2-219,84.7-284.7-3.5
			c-65.2-87.5-239.5-223.4-402.1-240.4c-149-15.7-328.3,101.7-371.4,182.3c-50.4,94.5-356.6,263.6-492.4,303.8
			c-159.5,47.1-459.3,13.1-549.4-60.6L5274.6,729.7z M5272.6,728.6c-51.5,51.5-147.4,68.3-184.2,64.6
			c-98.5-10-278.4-349.2-458.8-349.2c-180.3,0-313.1,370.7-516.1,370.7c-203,0-451-539.8-700.5-539.8c-131.1,0-300.5,79-362.2,148.1
			c-56.2,62.9-262.4,152.4-382,136.8c-104.7-13.8-254.5-126.1-352-45.2c-70.2,58.2-208,320.9-429.9,320.9
			c-221.9,0-283.3-524.5-508.8-524.5s-254.5,274.5-441.1,274.5s-307.6-168.8-409-209.7c-135.3-54.6-284.8,29-368.5,84.2
			c-48,31.8-139,20-198.3,25.4c-52,4.8-115.4,25.7-145.7,53.9c-71.3,66.2-219.5,82.2-283.3-3.4c-63.1-85-244-216.8-401.8-233.4
			c-144.6-15.2-328.8,98.8-370.4,177c-48.8,91.6-360,255.9-491.9,294.8c-154.8,45.7-457.4,12.7-544.9-58.8L5272.6,728.6z
			 M5270.4,727.6c-49.9,49.9-147.4,66.3-183.1,62.6c-95.5-9.7-285.9-338.7-460.7-338.7c-174.8,0-321.1,359.6-518,359.6
			c-196.9,0-461.8-523.4-703.8-523.4c-127,0-300.7,76.6-360.7,143.7c-54.5,61-263.9,147.8-380,132.6
			c-101.6-13.3-255-122.2-349.5-43.9c-68,56.4-216.7,311.3-432,311.3c-215.3,0-297.2-508.7-515.8-508.7
			c-218.6,0-261,266.2-441.8,266.2S615.3,425.2,516.9,385.5c-131.3-53-285.2,28.1-366,81.7c-46.6,30.9-139,19.3-196.6,24.7
			c-50.4,4.5-115.6,24.9-144.9,52.2c-69.1,64.1-220.1,79.7-281.9-3.3c-61.2-82.4-248.4-210.2-401.3-226.3
			c-140.2-14.8-329.1,95.8-369.6,171.7C-1290.9,575-1607,734.3-1734.9,772c-150.1,44.3-455.5,12.3-540.3-57L5270.4,727.6z
			 M5268.2,726.5c-48.4,48.3-147.6,64.1-182.1,60.7c-92.5-9.3-293.3-328.1-462.7-328.1c-169.4,0-329.1,348.3-519.7,348.3
			c-190.6,0-472.6-507-707.1-507c-123.1,0-300.9,74.2-358.9,139.1c-52.8,59.1-265.5,143.2-377.9,128.5
			c-98.5-13-255.5-118.5-347-42.5c-66,54.7-225.3,301.5-433.9,301.5s-311.2-492.8-523-492.8s-267.2,257.9-442.6,257.9
			c-175.2,0-311.9-158.6-407.2-197c-127.2-51.3-285.1,27.2-363.7,79.1C97,504.2,3.3,493-52.5,498.1c-48.8,4.4-115.6,24.1-144.1,50.6
			c-66.9,62.2-220.6,77.2-280.4-3.2c-59.4-79.8-252.8-203.6-401-219.2c-135.8-14.3-329.6,92.8-368.7,166.2
			c-45.9,86.1-367.1,240.3-490.8,276.9c-145.4,43-453.6,11.9-535.7-55.1L5268.2,726.5z M5266.1,725.4
			c-46.8,46.8-147.6,62.1-181,58.7c-89.5-9.1-300.7-317.5-464.6-317.5c-163.9,0-337.1,337.1-521.6,337.1S3615.4,313,3388.5,313
			c-119.2,0-301,71.8-357.2,134.7c-51.2,57.2-266.9,138.6-375.8,124.3c-95.3-12.5-255.8-114.6-344.5-41.2
			c-63.8,52.9-234.1,291.8-435.9,291.8c-201.8,0-325.2-476.9-530.1-476.9s-273.7,249.6-443.4,249.6c-169.6,0-314-153.5-406.2-190.6
			c-122.9-49.7-285.3,26.4-361.3,76.6c-43.8,29-139.1,18.2-193,23.1c-47.3,4.3-115.7,23.3-143.2,48.9c-64.7,60.1-221.1,74.8-279-3.1
			c-57.5-77.3-257.4-197.1-400.7-212.1c-131.4-13.9-329.9,89.8-367.9,160.9c-44.4,83.3-370.6,232.6-490.4,268.1
			c-140.7,41.5-451.6,11.6-531.2-53.4L5266.1,725.4z"/>
		<path class="st2" d="M5279.6,732.6c-56.2,56.2-147.3,74.5-187.5,70.4C4984.8,792,4836,422.3,4639.3,422.3
			c-196.6,0-289.2,404-510.6,404c-221.4,0-418.3-588.2-690.4-588.2c-142.9,0-299.9,86.2-367.3,161.4
			c-61.4,68.6-257.7,166.1-388.3,149c-114.3-15-253.3-137.4-359.6-49.3c-76.6,63.4-182,349.8-424,349.8
			c-242.1,0-241.3-571.7-487.2-571.7s-235.2,299.2-438.7,299.2c-203.5,0-301-183.9-411.7-228.6c-147.6-59.5-284.4,31.6-375.4,91.9
			c-52.4,34.7-138.8,21.8-203.5,27.6c-56.7,5.1-115.3,28-148.2,58.7c-77.7,72.1-217.9,89.6-287.3-3.8
			c-68.9-92.7-230.7-236.2-402.8-254.3c-157.8-16.6-327.5,107.7-373.1,192.9c-53.2,99.9-349.5,278.9-493.4,321.3
			c-168.8,49.8-463.1,13.9-558.4-64 M5292.5,738.8c-65.5,65.5-147.1,86.9-193.9,82.1c-125.3-12.7-211.5-444-440.9-444
			c-229.4,0-241.2,471.4-499.5,471.4c-258.3,0-353.1-686.3-670.6-686.3c-166.8,0-298.8,100.5-377.3,188.4
			c-71.8,80-248.7,193.8-401,173.9c-133.3-17.5-250.8-160.3-374.8-57.5c-89.3,74-129.8,408.1-412.3,408.1s-157.5-667-444.4-667
			S1280.8,557,1043.4,557c-237.4,0-288-214.6-417.2-266.7C453.9,221,342.8,327.2,236.5,397.5C175.2,438,98,422.9,22.4,429.8
			c-66.1,6-114.8,32.6-153.3,68.4c-90.6,84.1-214.8,104.6-295.8-4.3c-80.4-108.1-204-275.7-404.8-296.7
			c-184-19.3-325.2,125.6-378.3,225c-62.2,116.5-328.5,325.4-496.2,374.8c-196.9,58.1-474.5,16.1-585.8-74.7L5292.5,738.8z
			 M5290.3,737.8c-63.9,63.9-147.1,84.8-192.8,80.1c-122.3-12.4-218.9-433.5-443-433.5c-223.9,0-249.2,460.2-501.4,460.2
			c-252.2,0-364-669.9-673.9-669.9c-162.8,0-299,98.1-375.8,183.9c-69.9,78.1-250.1,189.2-398.7,169.7
			c-130.2-17.1-251.2-156.5-372.3-56.2c-87.1,72.2-138.5,398.5-414.2,398.5s-171.5-651.2-451.4-651.2
			c-280.1,0-203.2,340.8-435.1,340.8C800,560.3,741.6,350.8,615.5,300c-168.2-67.8-283.6,35.9-387.4,104.6
			c-59.8,39.6-138.6,24.8-212.3,31.5C-48.7,442-98.9,468-136.6,502.9C-225,585-351.9,605-431,498.7
			C-509.6,393.2-639.4,229.6-835.4,209c-179.6-18.9-325.7,122.7-377.3,219.6c-60.8,113.8-332.1,317.6-495.7,365.9
			c-192.2,56.7-472.6,15.8-581.3-73L5290.3,737.8z M5288.3,736.8c-62.3,62.3-147.1,82.6-191.7,78.2
			c-119.3-12.1-226.4-422.9-444.8-422.9c-218.4,0-257.2,448.9-503.2,448.9s-374.8-653.6-677.2-653.6c-158.8,0-299.1,95.7-374,179.4
			c-68.1,76.2-251.6,184.6-396.6,165.5c-127-16.6-251.7-152.7-369.8-54.8c-85.1,70.5-147.3,388.7-416.3,388.7
			c-269,0-185.4-635.3-458.7-635.3c-273.2,0-209.6,332.5-435.7,332.5s-292.4-204.4-415.3-254c-164.1-66.1-283.7,35.1-385,102.1
			c-58.3,38.5-138.6,24.2-210.6,30.7c-63,5.7-114.9,31.1-151.7,65.1c-86.4,80.1-215.9,99.6-293-4.1
			c-76.6-102.9-212.8-262.5-404-282.6c-175.2-18.4-326,119.6-376.5,214.3c-59.2,111-335.6,309.9-495.2,357
			c-187.5,55.4-470.7,15.3-576.7-71.2L5288.3,736.8z M5286.1,735.7c-60.8,60.8-147.3,80.6-190.6,76.3
			c-116.4-11.8-233.8-412.3-446.9-412.3c-213.1,0-265.2,437.8-505,437.8c-239.9,0-385.6-637.2-680.5-637.2
			c-154.8,0-299.3,93.3-372.3,175c-66.4,74.3-253.1,180-394.6,161.4c-123.7-16.3-252-148.8-367.3-53.4
			c-82.9,68.7-155.9,379-418.1,379c-262.2,0-199.4-619.3-465.7-619.3c-266.5,0-216.1,324.2-436.5,324.2
			c-220.5,0-294.6-199.3-414.4-247.6c-160.2-64.8-284.2,33.8-382.8,99.1c-56.8,37.6-138.6,23.6-208.8,30
			c-61.4,5.6-114.9,30.4-150.7,63.5c-84.2,78.1-216.4,97.1-291.6-4c-74.6-100.4-217.3-256-403.7-275.6
			c-170.8-18-326.4,116.6-375.6,208.9c-57.8,108.2-339,302.2-494.8,348.1c-182.9,54-468.9,15-572-69.3L5286.1,735.7z M5283.9,734.6
			c-59.2,59.2-147.3,78.6-189.7,74.2c-113.4-11.5-241.2-401.8-448.8-401.8c-207.6,0-273.2,426.5-506.9,426.5
			c-233.6,0-396.5-620.9-683.8-620.9c-150.9,0-299.6,90.9-370.7,170.4c-64.7,72.4-254.7,175.4-392.4,157.3
			c-120.6-15.8-252.5-145.1-364.8-52.1c-80.9,67-164.6,369.2-420.2,369.2c-255.5,0-213.4-603.5-472.9-603.5
			c-259.5,0-222.5,315.9-437.3,315.9C781.6,570,699.8,375.8,583,328.8c-155.9-62.8-284.1,33.3-380.3,97
			c-55.4,36.6-138.6,23-207,29.2c-59.8,5.5-115.1,29.6-150,62c-82,76.1-216.8,94.6-290.2-4c-72.7-97.8-221.7-249.4-403.4-268.5
			c-166.4-17.5-326.8,113.7-374.8,203.6c-56.2,105.5-342.6,294.3-494.3,339.1c-178.2,52.5-466.8,14.7-567.5-67.6L5283.9,734.6z
			 M5281.8,733.6c-57.8,57.6-147.3,76.5-188.6,72.3c-110.4-11.1-248.7-391.2-450.8-391.2c-202.1,0-281.2,415.3-508.8,415.3
			s-407.3-604.6-687.1-604.6c-147,0-299.8,88.6-369,166c-63.1,70.5-256.3,170.8-390.4,153.1c-117.4-15.3-253-141.2-362.1-50.7
			c-78.7,65.1-173.2,359.6-422.1,359.6s-227.4-587.6-480-587.6c-252.7,0-228.9,307.5-438.1,307.5S686.2,384.2,572.3,338.4
			c-151.7-61.2-284.2,32.5-377.9,94.4c-54,35.7-138.8,22.4-205.2,28.4c-58.3,5.3-115.1,28.8-149.2,60.3
			c-79.8,74.1-217.5,92.1-288.8-3.9c-70.8-95.2-226.3-242.8-403.1-261.4c-162.2-17.1-327.2,110.6-373.9,198.3
			c-54.8,102.7-346.1,286.6-493.8,330.2c-173.5,51.2-464.9,14.2-562.9-65.8L5281.8,733.6z"/>
		<path class="st2" d="M5293.8,739.3c-67,67.1-147.1,89-195,84.1c-128.3-13-204.1-455-439.2-455c-234.9,0-233.3,482.9-497.9,482.9
			s-342.3-703.1-667.5-703.1c-170.8,0-298.7,102.9-379.2,193c-73.3,82-247,198.6-403.1,178.1c-136.4-17.8-250.4-164.3-377.5-59
			c-91.4,75.8-121.2,418.1-410.4,418.1s-143.5-683.3-437.3-683.3c-293.8,0-190.5,357.6-433.7,357.6C809.9,552.8,767,333,634.8,279.6
			c-176.3-71.1-283.3,37.7-392.2,109.8c-62.7,41.5-138.5,26-215.9,33.1C-41,428.7-88,456-127.5,492.7
			c-92.8,86.2-214.3,107.1-297.4-4.4c-82.3-110.7-199.6-282.4-405.3-304c-188.4-19.8-324.9,128.7-379.2,230.5
			c-63.8,119.4-325.2,333.3-497,384c-201.6,59.6-476.6,16.6-590.6-76.5 M5306.6,745.6c-76.5,76.4-147,101.4-201.5,95.8
			c-146.2-14.8-159.5-518.4-427.3-518.4c-267.7,0-185.4,550.3-486.8,550.3c-301.3,0-277.1-801.2-647.7-801.2
			c-194.6,0-297.6,117.3-389.2,219.9c-83.5,93.4-237.9,226.2-415.5,202.9c-155.6-20.3-247.9-187.1-392.7-67.2
			c-104.3,86.4-69.1,476.4-398.7,476.4c-329.6,0-59.7-778.7-394.4-778.7c-334.8,0-152,407.6-429.1,407.6S850.7,282.5,700.1,221.8
			c-201-81.1-282.3,43-406.4,125.2c-71.4,47.3-138.3,29.7-226.4,37.7c-77.3,7-114.2,38.1-159.2,79.9
			c-105.8,98.2-211.2,122.1-305.7-5.1c-93.9-126.2-172.9-321.8-407.2-346.4c-214.8-22.5-322.5,146.7-384.5,262.7
			c-72.5,136.1-304.1,379.8-499.8,437.7c-229.9,67.9-488,18.9-617.9-87.2L5306.6,745.6z M5304.5,744.6
			c-74.9,74.8-147,99.4-200.5,93.9C4960.7,824,4937,330.7,4674.6,330.7c-262.2,0-193.5,539.1-488.6,539.1
			c-295.4,0-288-784.9-651-784.9c-190.6,0-297.7,114.9-387.5,215.4c-81.8,91.5-239.3,221.7-413.4,198.8
			c-152.5-20-248.4-183.4-390.2-65.8c-102.1,84.6-77.9,466.8-400.7,466.8s-73.6-762.8-401.5-762.8c-328,0-158.4,399.3-429.9,399.3
			c-271.5,0-275.1-245.4-422.9-305c-196.9-79.4-282.5,42.2-404,122.5c-70,46.3-138.3,29.1-224.7,36.9C-15.4,398-54,428.5-98.2,469.4
			c-103.6,96.2-211.7,119.6-304.3-5C-494.3,340.8-579.7,149.1-809.3,125c-210.2-22.2-322.8,143.6-383.4,257.3
			c-71.1,133.3-307.6,372.1-499.3,428.7c-225.2,66.5-486.1,18.5-613.3-85.5L5304.5,744.6z M5302.4,743.6
			c-73.3,73.3-147,97.2-199.4,92c-140.2-14.2-174.5-497.2-431.2-497.2c-256.9,0-201.3,527.9-490.5,527.9
			c-289.1,0-298.8-768.5-654.3-768.5c-186.7,0-297.9,112.5-385.9,211c-80.1,89.6-240.9,217-411.4,194.7
			c-149.2-19.6-248.9-179.5-387.7-64.5c-100,82.9-86.5,457-402.6,457s-87.6-746.9-408.7-746.9c-321.1,0-164.9,391-430.7,391
			S822.6,299.8,678,241.4c-192.8-77.8-282.6,41.3-401.7,120c-68.5,45.4-138.3,28.4-223,36.2c-74.1,6.7-114.3,36.6-157.5,76.6
			c-101.4,94.2-212.1,117.1-302.9-4.9c-90-121-181.8-308.6-406.5-332.3c-206-21.6-323.3,140.6-382.7,251.9
			c-69.6,130.5-311.1,364.4-498.9,419.7c-220.5,65-484.3,18.1-608.8-83.7L5302.4,743.6z M5300.2,742.4c-71.8,71.7-147,95.2-198.3,90
			c-137.2-13.9-181.8-486.7-433.2-486.7s-209.3,516.7-492.3,516.7c-283,0-309.6-752.1-657.6-752.1c-182.6,0-298,110.2-384.2,206.4
			c-78.4,87.7-242.4,212.5-409.4,190.5c-146-19.1-249.2-175.6-385-63.1c-97.8,81.1-95.1,447.3-404.6,447.3
			c-309.3,0-101.6-731.1-415.8-731.1c-314.3,0-171.3,382.7-431.3,382.7c-260.2,0-279.5-235.2-421-292.3
			c-188.7-76.1-282.8,40.4-399.3,117.4c-67,44.3-138.5,27.9-221.2,35.4c-72.4,6.6-114.3,35.8-156.6,75
			c-99.2,92.2-212.8,114.6-301.5-4.8c-88.1-118.5-186.2-302.1-406.2-325.2c-201.6-21.1-323.8,137.7-381.9,246.6
			c-68.1,127.8-314.7,356.6-498.4,410.8c-215.7,63.7-482.4,17.7-604.2-81.9L5300.2,742.4z M5298,741.4c-70.2,70.1-147,93.1-197.2,88
			c-134.2-13.6-189.2-476.1-435.1-476.1c-245.9,0-217.3,505.4-494.1,505.4c-276.8,0-320.6-735.8-660.9-735.8
			c-178.7,0-298.3,107.8-382.5,202c-76.6,85.8-244,207.8-407.1,186.4c-142.9-18.8-249.7-171.9-382.5-61.7
			c-95.8,79.4-103.8,437.6-406.5,437.6c-302.7,0-115.6-715.2-423-715.2c-307.4,0-177.8,374.4-432.1,374.4
			c-254.5,0-281.7-230.1-420-285.9c-184.7-74.5-283,39.4-397,114.9c-65.6,43.4-138.5,27.3-219.4,34.6c-71,6.5-114.5,35-155.8,73.4
			c-97,90.2-213.2,112.1-300.1-4.7C-501.5,363-606,183.2-821.2,160.6c-197.2-20.7-324.1,134.7-380.9,241.2
			c-66.7,124.9-318.1,348.9-497.9,401.9c-211,62.3-480.5,17.3-599.7-80.1L5298,741.4z M5296,740.4c-68.6,68.7-147.1,91.1-196.1,86.1
			c-131.3-13.3-196.8-465.5-437.1-465.5c-240.4,0-225.3,494.2-496,494.2c-270.7,0-331.5-719.4-664.2-719.4
			c-174.8,0-298.5,105.4-380.9,197.5c-75.1,83.9-245.6,203.2-405.1,182.2c-139.7-18.3-250-168-380-60.4
			c-93.6,77.5-112.6,427.9-408.6,427.9c-296,0-129.5-699.3-430.2-699.3c-300.7,0-184,365.9-432.9,365.9
			c-248.9,0-283.9-225-419.1-279.5c-180.6-72.8-283.1,38.7-394.6,112.3c-64.2,42.4-138.5,26.6-217.6,33.9
			c-69.2,6.4-114.6,34.2-155,71.7c-95,88.2-213.9,109.6-298.7-4.5c-84.3-113.2-195.2-289-405.6-311
			c-192.8-20.2-324.6,131.6-380.1,235.9c-65.2,122.2-321.6,341-497.4,393c-206.3,60.9-478.4,16.9-595.1-78.3L5296,740.4z"/>
		<path class="st2" d="M5309.2,747.2c-78,78-146.8,103.5-202.6,97.8c-149.2-15.1-152-529.1-425.2-529.1
			c-273.2,0-177.4,561.7-484.9,561.7c-307.4,0-266.1-817.7-644.3-817.7c-198.5,0-297.2,119.7-390.8,224.4
			c-85.3,95.4-236.3,230.9-417.5,207.1c-158.7-20.8-247.5-191-395.2-68.6c-106.3,88.1-60.4,486.3-396.6,486.3
			s-45.7-794.8-387.2-794.8s-145.6,416-428.3,416c-282.6,0-270.9-255.8-424.6-317.7C506.8,130,429.7,256.6,303.2,340.4
			C230.3,388.6,165,370.6,75,378.8c-78.8,7.2-114.2,38.9-160,81.5c-107.9,100.3-210.6,124.6-307.1-5.2
			c-95.8-128.8-168.3-328.4-407.5-353.6c-219-23.1-322,149.7-385.3,268.1c-74.1,138.9-300.5,387.7-500.3,446.7
			c-234.4,69.2-489.9,19.2-622.3-89 M5311.4,748.2c-79.6,79.6-146.8,105.5-203.6,99.8c-152.2-15.5-144.6-539.7-423.3-539.7
			c-278.6,0-169.4,573-483,573c-313.7,0-255.3-834-641-834c-202.6,0-297.1,122.1-392.5,229c-86.8,97.2-234.8,235.6-419.6,211.3
			c-161.9-21.3-247.2-194.9-397.7-69.9c-108.5,89.9-51.8,496-394.8,496s-31.7-810.7-380-810.7c-348.4,0-139.3,424.3-427.6,424.3
			S879.6,266.5,722.9,203.3c-209.1-84.4-282,44.8-411.1,130.3c-74.3,49.2-138.2,30.9-229.9,39.2C1.6,380-32.1,412.4-78.8,456
			c-110.1,102.2-210.1,127.1-308.4-5.2c-97.7-131.3-163.9-335-407.8-360.6c-223.6-23.5-321.7,152.7-386.1,273.4
			c-75.5,141.6-297.1,395.4-500.7,455.5c-239.1,70.6-491.8,19.7-626.8-90.8L5311.4,748.2z"/>
	</g>
</g>
<g class="st0">
	<defs>
		
			<rect id="SVGID_00000022535627373613637520000002965105136781638058_" x="-2311" y="46" class="st0" width="7624" height="635.1"/>
	</defs>
	<clipPath id="SVGID_00000147929669251613611980000004680474144823633031_">
		<use xlink:href="#SVGID_00000022535627373613637520000002965105136781638058_"  style="overflow:visible;"/>
	</clipPath>
	<g style="opacity:0.17;clip-path:url(#SVGID_00000147929669251613611980000004680474144823633031_);">
		<path class="st2" d="M5202.1,694.6h-7418.1 M5217.1,702c-11,10.9-148.4,14.6-156.2,13.8c-20.9-2.2-471.7-74.3-510-74.3
			c-38.3,0-520.8,78.9-563.9,78.9c-43,0-733.4-114.9-786.4-114.9c-27.8,0-305.4,16.8-318.4,31.5c-11.9,13.4-302.3,32.4-327.7,29.1
			c-22.3-3-265.4-26.8-286.1-9.7c-14.9,12.4-433.7,68.3-480.8,68.3c-47.1,0-646.8-111.7-694.5-111.7c-47.7,0-421,58.4-460.5,58.4
			S269,635.4,247.4,626.6c-28.7-11.6-289.1,6.1-306.8,18c-10.2,6.8-139.9,4.2-152.5,5.5c-11,1-117.8,5.5-124,11.5
			c-15.1,14.1-233.2,17.5-246.7-0.7c-13.3-18.1-359.6-46.2-393-49.7c-30.6-3.2-338.8,21-347.6,37.6
			c-10.4,19.6-451.1,54.5-479.1,62.8c-32.8,9.8-407.6,2.7-426.1-12.5L5217.1,702z M5214.9,701c-9.4,9.4-148.4,12.5-155.1,11.8
			c-17.9-1.8-479.1-63.8-511.9-63.8c-32.8,0-528.8,67.6-565.7,67.6c-36.9,0-744.3-98.4-789.7-98.4c-23.9,0-305.6,14.4-316.9,27.1
			c-10.2,11.5-303.8,27.9-325.7,25c-19-2.5-265.8-23-283.6-8.3c-12.7,10.6-442.3,58.5-482.7,58.5c-40.4,0-660.7-95.7-701.7-95.7
			s-427.4,50.1-461.3,50.1c-33.9,0-365.9-30.8-384.2-38.3C211.8,626.6-52.8,642-68,652c-8.8,5.8-139.9,3.6-150.7,4.7
			c-9.4,0.9-117.8,4.7-123.3,9.8c-12.9,12-233.8,15-245.4-0.6c-11.5-15.5-364-39.6-392.7-42.6c-26.2-2.7-339.3,18.1-346.9,32.3
			c-9,16.7-454.7,46.7-478.6,53.8c-28.1,8.3-405.7,2.3-421.6-10.7L5214.9,701z M5212.9,699.9c-7.9,7.8-148.4,10.3-154,9.8
			c-14.9-1.5-486.6-53.1-513.9-53.1S4008.2,713,3977.5,713c-30.8,0-755.1-82.1-793-82.1c-19.8,0-305.7,12.1-315.1,22.5
			c-8.5,9.5-305.4,23.2-323.5,20.8c-15.9-2-266.1-19.2-280.9-6.9c-10.7,8.9-451,48.8-484.7,48.8s-674.7-79.8-708.8-79.8
			c-34.2,0-433.8,41.7-462.1,41.7c-28.3,0-367.9-25.7-383.3-31.9c-20.6-8.3-289.4,4.4-302.1,12.8c-7.4,4.9-140.1,3.1-149,3.9
			c-7.9,0.7-117.9,3.9-122.5,8.2c-10.8,10.1-234.3,12.5-244-0.6c-9.6-13-368.4-33-392.2-35.5c-22-2.3-339.6,15-346.1,26.9
			c-7.4,14-458.2,38.9-478.1,44.8c-23.4,6.9-403.7,1.9-417.1-9L5212.9,699.9z M5210.7,698.8c-6.3,6.3-148.5,8.3-152.9,7.8
			c-11.9-1.2-494-42.5-515.8-42.5c-21.8,0-544.7,45.1-569.4,45.1s-766.1-65.7-796.2-65.7c-15.9,0-306,9.7-313.4,18.1
			c-6.8,7.6-307,18.5-321.4,16.6c-12.7-1.7-266.6-15.3-278.4-5.5c-8.5,7-459.8,39.1-486.6,39.1s-688.7-63.8-716-63.8
			s-440.3,33.4-462.9,33.4S227.5,660.9,215.3,656c-16.5-6.6-289.5,3.5-299.8,10.2c-5.8,3.9-140.1,2.4-147.3,3.1
			c-6.3,0.6-117.9,3.1-121.7,6.6c-8.6,8.1-234.9,10-242.6-0.5c-7.7-10.3-372.9-26.4-391.9-28.4c-17.6-1.8-340.1,12-345.1,21.5
			c-6,11.1-461.6,31.1-477.7,35.9c-18.8,5.6-401.8,1.6-412.5-7.2L5210.7,698.8z M5208.5,697.8c-4.7,4.7-148.5,6.3-151.8,5.9
			c-8.9-0.9-501.4-31.8-517.9-31.8c-16.3,0-552.7,33.9-571.2,33.9c-18.5,0-776.9-49.2-799.5-49.2c-11.9,0-306.2,7.2-311.9,13.5
			c-5.2,5.8-308.4,13.9-319.4,12.5c-9.6-1.3-267.1-11.5-275.9-4.1c-6.4,5.3-468.4,29.3-488.6,29.3c-20.1,0-702.7-47.9-723.1-47.9
			c-20.6,0-446.7,25-463.7,25S213.2,669.6,204,665.8c-12.2-5-289.7,2.6-297.4,7.7c-4.4,3-140.1,1.8-145.4,2.3
			c-4.7,0.5-118.1,2.4-120.7,4.9c-6.4,6-235.4,7.5-241.2-0.3c-5.8-7.7-377.3-19.8-391.6-21.3c-13.2-1.4-340.4,9-344.2,16.1
			c-4.4,8.4-465.3,23.3-477.2,26.9c-14.1,4.2-399.9,1.1-407.9-5.3L5208.5,697.8z M5206.5,696.7c-3.1,3.2-148.5,4.2-150.7,4
			c-6-0.6-508.9-21.3-519.7-21.3c-11,0-560.7,22.5-573,22.5s-787.8-32.9-802.9-32.9c-8,0-306.3,4.8-310.1,9
			c-3.5,3.9-310,9.3-317.2,8.3c-6.3-0.8-267.4-7.6-273.4-2.7c-4.2,3.5-477,19.6-490.5,19.6c-13.5,0-716.6-31.9-730.3-31.9
			c-13.7,0-453,16.7-464.3,16.7c-11.3,0-374.5-10.2-380.6-12.7c-8.2-3.3-290,1.8-295,5.1c-2.8,1.9-140.2,1.2-143.8,1.6
			c-3.1,0.3-118.1,1.6-120,3.3c-4.4,4-235.8,5-239.8-0.2c-3.8-5.1-381.7-13.2-391.3-14.2c-8.8-0.9-340.9,6-343.4,10.8
			c-3,5.6-468.7,15.6-476.7,18c-9.4,2.7-398,0.8-403.4-3.5L5206.5,696.7z M5204.3,695.6c-1.6,1.6-148.5,2-149.6,1.9
			c-3-0.3-516.3-10.6-521.8-10.6c-5.5,0-568.7,11.3-574.9,11.3c-6.1,0-798.6-16.4-806.1-16.4c-3.9,0-306.5,2.4-308.4,4.5
			c-1.7,1.9-311.5,4.7-315.1,4.2c-3.1-0.5-267.9-3.9-270.9-1.4c-2.2,1.8-485.8,9.8-492.4,9.8c-6.8,0-730.6-15.9-737.4-15.9
			s-459.4,8.3-465.1,8.3c-5.7,0-376.7-5.1-379.7-6.4c-4.1-1.7-290,0.9-292.5,2.6c-1.4,1-140.2,0.6-141.9,0.8
			c-1.6,0.1-118.2,0.8-119,1.6c-2.2,2-236.5,2.5-238.4-0.1c-1.9-2.6-386.3-6.6-391-7c-4.4-0.5-341.2,3-342.5,5.3
			c-1.4,2.7-472.2,7.7-476.1,9c-4.7,1.4-396.2,0.3-398.8-1.8L5204.3,695.6z"/>
		<path class="st2" d="M5218.4,702.7c-12.4,12.5-148.4,16.5-157.3,15.7c-23.9-2.4-464.3-84.6-508-84.6s-512.8,89.8-562,89.8
			c-49.1,0-722.6-130.7-783.1-130.7c-31.7,0-305.2,19.1-320.2,35.9c-13.7,15.2-300.8,36.9-329.7,33.1c-25.4-3.3-265-30.6-288.6-10.9
			c-16.9,14.1-425.1,77.8-478.8,77.8c-53.9,0-632.8-127.1-687.4-127.1c-54.6,0-414.7,66.5-459.9,66.5c-45.2,0-361.5-40.9-386.1-50.8
			c-32.8-13.2-288.9,7-309.2,20.5c-11.6,7.7-139.9,4.9-154.4,6.1c-12.6,1.1-117.6,6.3-125,13.1c-17.3,16-232.7,19.9-248.2-0.8
			c-15.4-20.6-355.2-52.5-393.3-56.5c-35-3.6-338.5,23.9-348.6,42.9c-11.8,22.2-447.7,62-479.5,71.4c-37.5,11-409.5,3.1-430.7-14.2
			 M5231.3,709c-21.8,21.8-148.1,29-163.8,27.4c-41.8-4.2-419.7-148-496.2-148c-76.5,0-464.9,157.1-551,157.1
			c-86,0-657.4-228.7-763.3-228.7c-55.6,0-304.2,33.5-330.4,62.8c-23.9,26.7-291.6,64.6-342.3,58c-44.4-5.8-262.5-53.4-303.8-19.2
			c-29.8,24.7-372.9,136.1-467.1,136.1c-94.2,0-548.9-222.4-644.6-222.4c-95.6,0-376.2,116.4-455.4,116.4s-348.6-71.5-391.6-88.9
			c-57.5-23.2-288,12.3-323.5,35.7c-20.4,13.5-139.7,8.4-164.9,10.8c-22,2-117.1,10.9-129.9,22.9c-30.1,28.1-229.6,34.9-256.6-1.5
			c-26.9-36-328.5-91.9-395.4-98.9c-61.4-6.5-336.2,41.8-353.9,75c-20.7,38.9-426.6,108.5-482.5,124.9c-65.6,19.3-421,5.3-458-24.9
			L5231.3,709z M5229.1,708c-20.3,20.2-148.2,26.8-162.7,25.5c-38.8-4-427.1-137.4-498.2-137.4c-71,0-473,146-552.9,146
			c-79.9,0-668.3-212.4-766.6-212.4c-51.7,0-304.3,31.1-328.6,58.3c-22.1,24.8-293.2,60-340.3,53.8c-41.3-5.5-262.9-49.6-301.3-17.8
			c-27.6,22.8-381.6,126.3-469,126.3c-87.5,0-562.9-206.4-651.6-206.4S775.2,651.8,701.7,651.8c-73.5,0-350.8-66.4-390.7-82.5
			c-53.4-21.5-288.1,11.4-321.1,33.2c-19,12.5-139.7,7.8-163.1,10c-20.4,1.8-117.1,10.1-129.1,21.1c-28.1,26-230.2,32.4-255.2-1.4
			c-25-33.4-332.9-85.4-395.1-91.9c-57-6-336.7,38.9-353,69.7c-19.3,36-430.1,100.7-482.1,116.1c-60.9,18-419.1,5-453.5-23.1
			L5229.1,708z M5227,706.9c-18.7,18.6-148.2,24.8-161.6,23.4c-35.8-3.6-434.6-126.9-500.1-126.9c-65.6,0-481,134.7-554.8,134.7
			c-73.8,0-679.1-196.1-769.9-196.1c-47.6,0-304.5,28.8-326.9,53.8c-20.4,22.8-294.7,55.4-338.2,49.7c-38.2-5-263.3-45.8-298.8-16.5
			c-25.6,21.1-390.4,116.6-471.1,116.6s-576.9-190.5-658.9-190.5c-82,0-389.1,99.7-456.9,99.7c-67.8,0-353-61.3-389.7-76.2
			c-49.1-19.8-288.3,10.6-318.8,30.6c-17.4,11.6-139.7,7.3-161.3,9.2c-18.8,1.7-117.3,9.3-128.3,19.6c-25.9,24-230.7,29.9-253.7-1.3
			c-22.9-30.9-337.3-78.8-394.7-84.8c-52.6-5.6-337,35.9-352.2,64.2c-17.7,33.3-433.7,93-481.6,107.1
			c-56.2,16.6-417.2,4.7-448.9-21.4L5227,706.9z M5224.8,705.8c-17.1,17.2-148.2,22.7-160.5,21.5c-32.8-3.3-442-116.3-502.1-116.3
			s-488.8,123.5-556.5,123.5s-689.9-179.7-773.2-179.7c-43.7,0-304.6,26.3-325.4,49.3c-18.7,20.9-296.1,50.8-336,45.6
			c-34.9-4.5-263.8-41.9-296.3-15.1c-23.4,19.3-399,106.9-472.9,106.9c-74,0-590.9-174.7-665.9-174.7c-75.2,0-395.5,91.4-457.6,91.4
			c-62.2,0-355-56.2-388.9-69.8C244.5,570.1,1.1,598-26.9,616.4c-16,10.6-139.7,6.7-159.5,8.4c-17.3,1.6-117.3,8.5-127.5,18
			c-23.7,22.1-231.1,27.4-252.3-1.1c-21-28.3-341.8-72.2-394.4-77.8c-48.2-5.1-337.3,32.9-351.3,58.9
			c-16.3,30.6-437.1,85.3-481.1,98.2c-51.7,15.2-415.3,4.2-444.4-19.6L5224.8,705.8z M5222.6,704.8
			c-15.6,15.6-148.2,20.7-159.4,19.6c-29.8-3.1-449.4-105.7-504-105.7c-54.6,0-496.8,112.2-558.4,112.2
			c-61.5,0-700.9-163.4-776.5-163.4c-39.7,0-304.9,23.9-323.6,44.9c-17.1,19.1-297.7,46.2-334,41.4c-31.7-4.2-264.1-38.2-293.6-13.8
			c-21.2,17.6-407.6,97.2-475,97.2c-67.2,0-604.8-158.8-673.1-158.8c-68.3,0-401.8,83.1-458.3,83.1c-56.5,0-357.2-51.2-388-63.5
			c-41-16.5-288.6,8.8-313.9,25.5c-14.6,9.7-139.9,6-157.8,7.7c-15.7,1.5-117.5,7.7-126.6,16.3c-21.7,20-231.8,24.9-251.1-1
			c-19.2-25.7-346.2-65.6-394-70.6c-43.8-4.5-337.8,29.9-350.3,53.5c-14.9,27.7-440.6,77.4-480.6,89.2
			c-46.9,13.9-413.4,3.9-439.8-17.7L5222.6,704.8z M5220.6,703.7c-14,14-148.4,18.6-158.3,17.6c-26.8-2.7-456.9-95.2-506.1-95.2
			c-49.1,0-504.8,101.1-560.2,101.1c-55.4,0-711.8-147.1-779.8-147.1c-35.8,0-305.1,21.5-321.9,40.4
			c-15.4,17.2-299.3,41.5-331.9,37.3c-28.6-3.8-264.6-34.3-291.1-12.4c-19.2,15.8-416.4,87.4-476.9,87.4
			c-60.4,0-618.8-142.9-680.2-142.9c-61.5,0-408.2,74.8-459.1,74.8c-50.9,0-359.3-46-387.1-57.2c-36.9-14.9-288.8,7.8-311.7,23
			c-13,8.6-139.9,5.5-156.1,6.9c-14.1,1.3-117.5,7-125.8,14.7c-19.5,18.1-232.2,22.4-249.7-0.9c-17.3-23.2-350.6-59.1-393.7-63.5
			c-39.4-4.1-338.1,26.9-349.5,48.2c-13.3,25-444.2,69.7-480.2,80.4c-42.2,12.5-411.4,3.4-435.3-16L5220.6,703.7z"/>
		<path class="st2" d="M5234.1,710.6c-23.4,23.4-148.1,31-164.9,29.3c-44.8-4.5-412.3-158.8-494.3-158.8
			c-82,0-456.9,168.6-549.3,168.6s-646.6-245.4-760-245.4c-59.5,0-304,35.9-332.1,67.4c-25.6,28.6-290,69.3-344.5,62.2
			c-47.6-6.3-262.1-57.3-306.4-20.6c-31.9,26.5-364.3,146-465.2,146c-101,0-535-238.6-637.3-238.6c-102.5,0-369.9,124.9-454.7,124.9
			c-84.8,0-346.4-76.7-392.6-95.4C271.3,525.4,45,563.4,7,588.5c-21.8,14.4-139.6,9.1-166.6,11.6c-23.6,2.2-117,11.7-130.8,24.4
			c-32.3,30.1-229.1,37.4-258-1.6c-28.7-38.7-324.1-98.6-395.7-106.2c-65.8-6.9-335.9,44.9-354.7,80.5
			c-22.3,41.7-423.2,116.4-483.2,134.1c-70.3,20.8-423,5.8-462.7-26.7 M5247,717c-32.8,32.7-147.9,43.5-171.3,41.2
			c-62.6-6.4-367.7-222.4-482.4-222.4c-114.8,0-409,236.1-538.3,236.1c-129.2,0-581.4-343.7-740.2-343.7
			c-83.4,0-302.7,50.4-342.2,94.4c-35.8,40-280.9,97.1-357.1,87.1c-66.7-8.8-259.6-80.3-321.6-28.9
			c-44.6,37.1-312.2,204.4-453.5,204.4c-141.3,0-451.1-334-594.5-334c-143.5,0-331.5,174.8-450.2,174.8
			c-118.7,0-333.5-107.5-398-133.6c-86.2-34.8-286.9,18.4-339.9,53.7c-30.6,20.2-139.4,12.7-177.1,16.1
			c-33.1,3.1-116.5,16.4-135.8,34.3c-45.2,42.2-226,52.4-266.5-2.2c-40.2-54.1-297.4-138-397.7-148.6c-92-9.7-333.5,62.9-360,112.7
			c-31.1,58.3-402.1,162.9-486,187.7c-98.4,29.1-434.5,8.1-490.1-37.4L5247,717z M5244.8,715.8c-31.2,31.3-147.9,41.4-170.2,39.1
			c-59.7-6-375.1-211.8-484.4-211.8S4173.1,768,4050.2,768c-123.1,0-592.3-327.3-743.5-327.3c-79.5,0-303.1,48-340.4,89.8
			c-34.1,38.2-282.3,92.4-354.9,82.9c-63.4-8.3-260-76.5-319.1-27.5c-42.6,35.2-320.9,194.6-455.4,194.6
			c-134.6,0-465.1-318.1-601.7-318.1S897.5,629,784.3,629c-113.1,0-335.6-102.4-397.1-127.2c-82-33.1-287,17.6-337.8,51.2
			C20.2,572.3-90,565.1-125.9,568.3c-31.6,2.8-116.7,15.6-135,32.6c-43.2,40.1-226.4,49.9-265.1-2
			c-38.3-51.5-301.8-131.4-397.4-141.5c-87.8-9.2-333.8,59.9-359.1,107.3c-29.7,55.6-405.6,155.2-485.5,178.8
			c-93.7,27.7-432.6,7.7-485.5-35.6L5244.8,715.8z M5242.7,714.8c-29.7,29.7-147.9,39.3-169.1,37.2
			c-56.7-5.8-382.5-201.2-486.3-201.2s-425.1,213.6-541.9,213.6c-116.8,0-603.1-310.9-746.8-310.9c-75.5,0-303.2,45.5-338.7,85.4
			c-32.3,36.3-283.9,87.8-352.8,78.8c-60.3-8-260.5-72.6-316.5-26c-40.7,33.4-329.9,184.8-457.6,184.8
			c-127.8,0-479.1-302.3-608.9-302.3c-129.8,0-344.2,158.2-451.6,158.2s-337.7-97.2-396.2-120.8c-77.9-31.5-287.2,16.7-335.2,48.5
			c-27.6,18.3-139.4,11.5-173.7,14.7c-30,2.7-116.7,14.8-134.1,31c-41,38.1-226.9,47.4-263.6-1.9c-36.4-49-306.2-124.9-397.1-134.5
			c-83.2-8.8-334.3,57-358.3,102c-28.1,52.9-409.2,147.4-485,169.8c-89.2,26.4-430.7,7.3-480.9-33.9L5242.7,714.8z M5240.5,713.8
			c-28.1,28.1-148.1,37.3-168,35.2c-53.7-5.5-390-190.6-488.3-190.6c-98.3,0-433.1,202.4-543.8,202.4
			c-110.7,0-614-294.6-750.1-294.6c-71.4,0-303.4,43.1-337.1,80.8c-30.6,34.3-285.5,83.2-350.8,74.6c-57.2-7.5-260.8-68.8-314-24.7
			c-38.3,31.7-338.2,175.2-459.3,175.2c-121.1,0-493-286.4-616-286.4S862.5,635.6,760.8,635.6c-101.8,0-340-92.1-395.2-114.5
			c-73.8-29.8-287.3,15.8-332.9,46C6.4,584.5-106.9,578.1-139.3,581c-28.4,2.6-116.8,14-133.3,29.3c-38.8,36.2-227.5,44.9-262.2-1.8
			c-34.4-46.4-310.7-118.3-396.8-127.3c-78.8-8.3-334.6,53.9-357.4,96.6c-26.7,50-412.7,139.7-484.6,160.9
			c-84.5,24.9-428.7,6.9-476.4-32.1L5240.5,713.8z M5238.3,712.7c-26.5,26.5-148.1,35.2-166.9,33.3
			c-50.7-5.1-397.4-180.1-490.4-180.1c-92.9,0-440.9,191.1-545.5,191.1c-104.6,0-624.8-278.2-753.4-278.2
			c-67.5,0-303.5,40.7-335.4,76.4c-29,32.4-287,78.6-348.6,70.5c-54-7-261.3-65-311.5-23.3c-36.1,30-346.9,165.4-461.3,165.4
			c-114.3,0-507-270.5-623.2-270.5S845.1,638.9,749,638.9s-342.1-87-394.4-108.1C284.8,502.7,67,545.7,24,574.2
			c-24.8,16.4-139.6,10.3-170.2,13.1c-26.7,2.4-116.8,13.2-132.4,27.7c-36.7,34.1-228,42.4-260.8-1.7
			c-32.5-43.8-315.1-111.7-396.3-120.3c-74.6-7.8-335.1,50.9-356.6,91.2c-25.1,47.3-416.1,131.9-484.1,152
			c-79.8,23.5-426.8,6.6-471.8-30.2L5238.3,712.7z M5236.3,711.6c-25,25-148.1,33.1-166,31.4c-47.7-4.9-404.8-169.4-492.3-169.4
			s-448.9,179.8-547.4,179.8c-98.5,0-635.8-261.8-756.7-261.8c-63.6,0-303.7,38.3-333.7,71.8c-27.3,30.6-288.6,74-346.6,66.4
			c-50.9-6.7-261.8-61.2-308.9-21.9c-34.1,28.2-355.6,155.7-463.2,155.7s-521-254.5-630.3-254.5c-109.3,0-363.5,133.2-453.9,133.2
			c-90.4,0-344.3-81.9-393.5-101.7c-65.6-26.5-287.7,14.1-328.2,40.9c-23.4,15.5-139.6,9.7-168.3,12.3
			c-25.3,2.3-117,12.5-131.6,26.1c-34.5,32.1-228.6,39.9-259.4-1.7c-30.6-41.3-319.5-105.2-396-113.2c-70.2-7.4-335.4,48-355.7,85.8
			c-23.7,44.4-419.7,124.1-483.6,143c-75.1,22.2-424.9,6.1-467.3-28.5L5236.3,711.6z"/>
		<path class="st2" d="M5249.8,716.4c-34.4,34.3-147.9,45.5-172.4,43c-65.6-6.6-360.2-232.6-480.3-232.6
			c-120.1,0-401,246.9-536.4,246.9s-570.5-359.5-736.7-359.5c-87.3,0-302.6,52.6-343.7,98.7c-37.5,41.9-279.3,101.5-359.1,91.1
			c-69.9-9.1-259.1-84-324.1-30.1c-46.8,38.8-303.5,213.8-451.4,213.8c-147.9,0-437-349.3-587.3-349.3s-325,182.9-449.4,182.9
			S477.6,508.8,410,481.5c-90.3-36.4-286.7,19.3-342.3,56.2C35.6,559-71.8,551-111.2,554.6c-34.7,3.2-116.4,17.2-136.6,35.8
			c-47.4,44.1-225.3,54.8-267.7-2.3c-42.1-56.6-292.8-144.4-398-155.4c-96.4-10.1-333,65.8-360.8,117.9
			c-32.7,61-398.7,170.4-486.5,196.3c-103.2,30.5-436.4,8.4-494.6-39.1 M5262.7,722.8c-43.7,43.7-147.6,57.9-178.9,54.7
			c-83.5-8.4-315.6-296-468.6-296c-152.9,0-353.1,314.3-525.2,314.3c-172.2,0-505.3-457.5-717-457.5c-111.2,0-301.5,67-353.9,125.6
			c-47.7,53.3-270.1,129.3-371.5,116c-88.9-11.6-256.7-106.9-339.3-38.4c-59.5,49.3-251.4,272-439.7,272s-353.1-444.7-544.4-444.7
			s-286.6,232.7-444.8,232.7c-158.3,0-318.3-143.1-404.3-177.8c-114.8-46.3-285.6,24.6-356.6,71.4C77.7,522.1-20.6,512-71,516.6
			c-44.1,4-115.9,21.8-141.6,45.6c-60.5,56-222.2,69.7-276.2-2.8c-53.7-72.1-266.1-183.7-400.1-197.8
			c-122.8-12.8-330.7,83.8-366.2,150.1c-41.5,77.6-377.6,216.9-489.4,249.9c-131.3,38.8-447.8,10.8-521.9-49.8L5262.7,722.8z
			 M5260.5,721.8c-42.1,42.1-147.6,55.8-177.8,52.7c-80.5-8.2-323-285.5-470.6-285.5c-147.4,0-361,303.1-527.1,303.1
			c-166.1,0-516.1-441.2-720.3-441.2c-107.2,0-301.6,64.6-352.2,121.1c-46,51.4-271.7,124.6-369.5,111.7
			c-85.7-11.3-257.1-103-336.8-37.1c-57.5,47.5-260,262.4-441.7,262.4c-181.5,0-367.1-428.8-551.6-428.8s-293,224.4-445.6,224.4
			c-152.6,0-320.5-138-403.5-171.4c-110.7-44.6-285.8,23.6-354.2,68.9c-39.4,26-139.1,16.4-187.6,20.8c-42.6,3.9-116,21-140.7,44
			c-58.3,54.1-222.7,67.2-274.8-2.8c-51.7-69.5-270.7-177.2-399.8-190.8c-118.4-12.4-331.2,80.7-365.2,144.6
			c-40,74.9-381.1,209.2-489,241c-126.6,37.4-445.9,10.3-517.4-48L5260.5,721.8z M5258.4,720.7c-40.5,40.5-147.8,53.8-176.6,50.8
			c-77.6-7.8-330.5-274.9-472.5-274.9c-141.9,0-369,291.8-529,291.8c-160,0-527-424.8-723.6-424.8c-103.2,0-301.8,62.2-350.5,116.6
			c-44.3,49.6-273.1,119.9-367.4,107.7c-82.6-10.8-257.5-99.2-334.3-35.6c-55.4,45.6-268.8,252.5-443.7,252.5
			c-174.9,0-381.1-412.9-558.7-412.9s-299.3,216.1-446.2,216.1S533.2,475.2,453.3,443c-106.6-43-285.9,22.8-351.9,66.4
			c-37.8,25-139.1,15.7-185.9,20c-41,3.8-116,20.2-139.9,42.4c-56.1,52.1-223.3,64.7-273.4-2.7c-49.8-66.8-275.1-170.6-399.5-183.7
			c-114-11.9-331.5,77.8-364.3,139.3c-38.5,72.2-384.5,201.4-488.5,232c-122,35.9-443.9,10-512.8-46.3L5258.4,720.7z M5256.2,719.6
			c-38.9,39-147.8,51.7-175.6,48.9c-74.6-7.5-337.9-264.3-474.5-264.3c-136.6,0-377,280.6-530.7,280.6
			c-153.7,0-537.8-408.5-726.9-408.5c-99.2,0-302,59.8-348.7,112.1c-42.6,47.6-274.6,115.4-365.4,103.5
			c-79.3-10.5-257.8-95.4-331.8-34.2c-53.2,44.1-277.5,242.9-445.6,242.9c-168.2,0-395.1-397-565.9-397s-305.7,207.8-447,207.8
			S519.4,483.6,442.5,452.7c-102.5-41.3-286.1,21.9-349.5,63.8c-36.4,24.1-139.3,15.1-184.2,19.2c-39.4,3.6-116.2,19.4-139.1,40.7
			c-54,50-223.8,62.2-272-2.6c-47.9-64.3-279.5-164-399-176.7c-109.6-11.5-331.9,74.8-363.5,133.9
			c-37.1,69.3-388.2,193.7-487.9,223.2c-117.3,34.6-442,9.7-508.3-44.4L5256.2,719.6z M5254,718.6c-37.4,37.4-147.8,49.7-174.5,47
			c-71.6-7.3-345.3-253.7-476.4-253.7s-385,269.4-532.6,269.4s-548.6-392.1-730.2-392.1c-95.3,0-302.3,57.4-347.2,107.7
			c-40.8,45.7-276.2,110.7-363.2,99.4c-76.2-10-258.3-91.6-329.1-32.9c-51,42.3-286.1,233.2-447.5,233.2
			c-161.4,0-409-381.2-573-381.2S968.3,614.8,832.7,614.8c-135.7,0-326.9-122.7-400.7-152.3c-98.5-39.7-286.4,21-347,61.3
			c-35,23.1-139.3,14.6-182.5,18.4c-37.8,3.4-116.2,18.6-138.3,39.1c-51.8,48.1-224.2,59.8-270.5-2.5
			c-46-61.7-283.9-157.6-398.7-169.6c-105.2-11-332.3,71.7-362.6,128.6c-35.5,66.6-391.6,185.9-487.4,214.2
			c-112.6,33.2-440.1,9.2-503.7-42.7L5254,718.6z M5252,717.6c-35.8,35.8-147.8,47.5-173.5,44.9c-68.6-6.9-352.8-243.2-478.4-243.2
			c-125.6,0-393,258.2-534.5,258.2c-141.5,0-559.6-375.8-733.4-375.8c-91.4,0-302.4,55-345.4,103.1
			c-39.3,43.8-277.8,106.2-361.1,95.2c-73-9.5-258.8-87.8-326.6-31.5c-49,40.5-294.7,223.5-449.5,223.5
			c-154.7,0-423-365.3-580.2-365.3c-157.2,0-318.6,191.2-448.6,191.2S491.5,500.3,420.8,471.8c-94.4-38-286.6,20.1-344.7,58.7
			c-33.4,22.2-139.3,13.9-180.6,17.6c-36.3,3.3-116.4,17.8-137.4,37.5c-49.6,46-224.9,57.3-269.1-2.4
			c-44-59.2-288.4-151-398.4-162.5c-100.8-10.6-332.6,68.8-361.6,123.2c-34.1,63.8-395.1,178.1-486.9,205.3
			c-107.9,31.8-438.2,8.9-499.2-40.9L5252,717.6z"/>
		<path class="st2" d="M5263.9,724.4c-45.2,45.2-147.6,60-179.9,56.7c-86.5-8.8-308.2-306.9-466.7-306.9
			c-158.4,0-345.1,325.8-523.5,325.8c-178.4,0-494.5-474.3-713.7-474.3c-115.1,0-301.3,69.5-355.5,130.2
			c-49.5,55.2-268.5,133.9-373.7,120.2c-92-12.1-256.3-110.8-341.8-39.8c-61.7,51.2-242.8,282-437.8,282s-339.2-461-537.3-461
			S1053.9,598.6,890,598.6S573.9,450.3,484.7,414.4c-118.9-48-285.5,25.5-358.9,74.1c-42.2,28-139.1,17.5-191.3,22.3
			c-45.7,4.2-115.9,22.6-142.4,47.3c-62.7,58.1-221.7,72.3-277.6-3c-55.6-74.7-261.8-190.5-400.4-205.1
			c-127-13.3-330.4,86.9-367,155.5c-43,80.6-374,224.9-489.9,259.1c-136,40.1-449.7,11.1-526.5-51.6 M5276.8,730.7
			c-54.6,54.6-147.4,72.4-186.4,68.4c-104.4-10.6-263.6-370.4-454.9-370.4S4338.3,822,4123,822c-215.3,0-429.1-572.4-693.9-572.4
			c-139,0-300.1,83.8-365.7,157.1c-59.7,66.7-259.2,161.7-386.3,145.1c-111.2-14.6-253.8-133.7-357.1-48
			c-74.4,61.7-190.6,340.5-426,340.5c-235.4,0-255.3-556.6-494.5-556.6S1158,579,960,579c-197.8,0-303.2-179.1-410.8-222.5
			c-143.5-57.9-284.5,30.7-373.2,89.4C125,479.6,37.2,467-25.8,472.8c-55.1,5-115.3,27.3-147.4,57.1
			c-75.5,70.1-218.4,87.2-286.1-3.6c-67-90.2-235.1-230-402.4-247.5c-153.4-16.1-328,104.8-372.1,187.7
			c-51.8,97.2-353.1,271.4-492.9,312.6c-164.1,48.4-461.2,13.5-554-62.3L5276.8,730.7z M5274.6,729.7
			c-53.1,53.1-147.4,70.4-185.3,66.5c-101.4-10.2-271-359.8-456.8-359.8c-185.8,0-305.1,382-514.2,382c-209.1,0-440.1-556-697.2-556
			c-135,0-300.4,81.4-364,152.7c-57.9,64.8-260.8,157-384.1,140.9c-107.9-14.2-254.2-129.9-354.6-46.6
			c-72.4,59.9-199.3,330.7-428,330.7c-228.8-0.1-269.4-540.7-501.7-540.7c-232.2,0-248.1,282.8-440.3,282.8S643.1,408.2,538.6,366
			c-139.4-56.3-284.7,29.9-370.9,86.9c-49.6,32.9-139,20.6-200,26.1c-53.5,4.9-115.4,26.5-146.7,55.5c-73.3,68.2-219,84.7-284.7-3.5
			c-65.2-87.5-239.5-223.4-402.1-240.4c-149-15.7-328.3,101.7-371.4,182.3c-50.4,94.5-356.6,263.6-492.4,303.8
			c-159.5,47.1-459.3,13.1-549.4-60.6L5274.6,729.7z M5272.6,728.6c-51.5,51.5-147.4,68.3-184.2,64.6
			c-98.5-10-278.4-349.2-458.8-349.2c-180.3,0-313.1,370.7-516.1,370.7c-203,0-451-539.8-700.5-539.8c-131.1,0-300.5,79-362.2,148.1
			c-56.2,62.9-262.4,152.4-382,136.8c-104.7-13.8-254.5-126.1-352-45.2c-70.2,58.2-208,320.9-429.9,320.9
			c-221.9,0-283.3-524.5-508.8-524.5s-254.5,274.5-441.1,274.5s-307.6-168.8-409-209.7c-135.3-54.6-284.8,29-368.5,84.2
			c-48,31.8-139,20-198.3,25.4c-52,4.8-115.4,25.7-145.7,53.9c-71.3,66.2-219.5,82.2-283.3-3.4c-63.1-85-244-216.8-401.8-233.4
			c-144.6-15.2-328.8,98.8-370.4,177c-48.8,91.6-360,255.9-491.9,294.8c-154.8,45.7-457.4,12.7-544.9-58.8L5272.6,728.6z
			 M5270.4,727.6c-49.9,49.9-147.4,66.3-183.1,62.6c-95.5-9.7-285.9-338.7-460.7-338.7c-174.8,0-321.1,359.6-518,359.6
			c-196.9,0-461.8-523.4-703.8-523.4c-127,0-300.7,76.6-360.7,143.7c-54.5,61-263.9,147.8-380,132.6
			c-101.6-13.3-255-122.2-349.5-43.9c-68,56.4-216.7,311.3-432,311.3c-215.3,0-297.2-508.7-515.8-508.7
			c-218.6,0-261,266.2-441.8,266.2S615.3,425.2,516.9,385.5c-131.3-53-285.2,28.1-366,81.7c-46.6,30.9-139,19.3-196.6,24.7
			c-50.4,4.5-115.6,24.9-144.9,52.2c-69.1,64.1-220.1,79.7-281.9-3.3c-61.2-82.4-248.4-210.2-401.3-226.3
			c-140.2-14.8-329.1,95.8-369.6,171.7C-1290.9,575-1607,734.3-1734.9,772c-150.1,44.3-455.5,12.3-540.3-57L5270.4,727.6z
			 M5268.2,726.5c-48.4,48.3-147.6,64.1-182.1,60.7c-92.5-9.3-293.3-328.1-462.7-328.1c-169.4,0-329.1,348.3-519.7,348.3
			c-190.6,0-472.6-507-707.1-507c-123.1,0-300.9,74.2-358.9,139.1c-52.8,59.1-265.5,143.2-377.9,128.5
			c-98.5-13-255.5-118.5-347-42.5c-66,54.7-225.3,301.5-433.9,301.5s-311.2-492.8-523-492.8s-267.2,257.9-442.6,257.9
			c-175.2,0-311.9-158.6-407.2-197c-127.2-51.3-285.1,27.2-363.7,79.1C97,504.2,3.3,493-52.5,498.1c-48.8,4.4-115.6,24.1-144.1,50.6
			c-66.9,62.2-220.6,77.2-280.4-3.2c-59.4-79.8-252.8-203.6-401-219.2c-135.8-14.3-329.6,92.8-368.7,166.2
			c-45.9,86.1-367.1,240.3-490.8,276.9c-145.4,43-453.6,11.9-535.7-55.1L5268.2,726.5z M5266.1,725.4
			c-46.8,46.8-147.6,62.1-181,58.7c-89.5-9.1-300.7-317.5-464.6-317.5c-163.9,0-337.1,337.1-521.6,337.1S3615.4,313,3388.5,313
			c-119.2,0-301,71.8-357.2,134.7c-51.2,57.2-266.9,138.6-375.8,124.3c-95.3-12.5-255.8-114.6-344.5-41.2
			c-63.8,52.9-234.1,291.8-435.9,291.8c-201.8,0-325.2-476.9-530.1-476.9s-273.7,249.6-443.4,249.6c-169.6,0-314-153.5-406.2-190.6
			c-122.9-49.7-285.3,26.4-361.3,76.6c-43.8,29-139.1,18.2-193,23.1c-47.3,4.3-115.7,23.3-143.2,48.9c-64.7,60.1-221.1,74.8-279-3.1
			c-57.5-77.3-257.4-197.1-400.7-212.1c-131.4-13.9-329.9,89.8-367.9,160.9c-44.4,83.3-370.6,232.6-490.4,268.1
			c-140.7,41.5-451.6,11.6-531.2-53.4L5266.1,725.4z"/>
		<path class="st2" d="M5279.6,732.6c-56.2,56.2-147.3,74.5-187.5,70.4C4984.8,792,4836,422.3,4639.3,422.3
			c-196.6,0-289.2,404-510.6,404c-221.4,0-418.3-588.2-690.4-588.2c-142.9,0-299.9,86.2-367.3,161.4
			c-61.4,68.6-257.7,166.1-388.3,149c-114.3-15-253.3-137.4-359.6-49.3c-76.6,63.4-182,349.8-424,349.8
			c-242.1,0-241.3-571.7-487.2-571.7s-235.2,299.2-438.7,299.2c-203.5,0-301-183.9-411.7-228.6c-147.6-59.5-284.4,31.6-375.4,91.9
			c-52.4,34.7-138.8,21.8-203.5,27.6c-56.7,5.1-115.3,28-148.2,58.7c-77.7,72.1-217.9,89.6-287.3-3.8
			c-68.9-92.7-230.7-236.2-402.8-254.3c-157.8-16.6-327.5,107.7-373.1,192.9c-53.2,99.9-349.5,278.9-493.4,321.3
			c-168.8,49.8-463.1,13.9-558.4-64 M5292.5,738.8c-65.5,65.5-147.1,86.9-193.9,82.1c-125.3-12.7-211.5-444-440.9-444
			c-229.4,0-241.2,471.4-499.5,471.4c-258.3,0-353.1-686.3-670.6-686.3c-166.8,0-298.8,100.5-377.3,188.4
			c-71.8,80-248.7,193.8-401,173.9c-133.3-17.5-250.8-160.3-374.8-57.5c-89.3,74-129.8,408.1-412.3,408.1s-157.5-667-444.4-667
			S1280.8,557,1043.4,557c-237.4,0-288-214.6-417.2-266.7C453.9,221,342.8,327.2,236.5,397.5C175.2,438,98,422.9,22.4,429.8
			c-66.1,6-114.8,32.6-153.3,68.4c-90.6,84.1-214.8,104.6-295.8-4.3c-80.4-108.1-204-275.7-404.8-296.7
			c-184-19.3-325.2,125.6-378.3,225c-62.2,116.5-328.5,325.4-496.2,374.8c-196.9,58.1-474.5,16.1-585.8-74.7L5292.5,738.8z
			 M5290.3,737.8c-63.9,63.9-147.1,84.8-192.8,80.1c-122.3-12.4-218.9-433.5-443-433.5c-223.9,0-249.2,460.2-501.4,460.2
			c-252.2,0-364-669.9-673.9-669.9c-162.8,0-299,98.1-375.8,183.9c-69.9,78.1-250.1,189.2-398.7,169.7
			c-130.2-17.1-251.2-156.5-372.3-56.2c-87.1,72.2-138.5,398.5-414.2,398.5s-171.5-651.2-451.4-651.2
			c-280.1,0-203.2,340.8-435.1,340.8C800,560.3,741.6,350.8,615.5,300c-168.2-67.8-283.6,35.9-387.4,104.6
			c-59.8,39.6-138.6,24.8-212.3,31.5C-48.7,442-98.9,468-136.6,502.9C-225,585-351.9,605-431,498.7
			C-509.6,393.2-639.4,229.6-835.4,209c-179.6-18.9-325.7,122.7-377.3,219.6c-60.8,113.8-332.1,317.6-495.7,365.9
			c-192.2,56.7-472.6,15.8-581.3-73L5290.3,737.8z M5288.3,736.8c-62.3,62.3-147.1,82.6-191.7,78.2
			c-119.3-12.1-226.4-422.9-444.8-422.9c-218.4,0-257.2,448.9-503.2,448.9s-374.8-653.6-677.2-653.6c-158.8,0-299.1,95.7-374,179.4
			c-68.1,76.2-251.6,184.6-396.6,165.5c-127-16.6-251.7-152.7-369.8-54.8c-85.1,70.5-147.3,388.7-416.3,388.7
			c-269,0-185.4-635.3-458.7-635.3c-273.2,0-209.6,332.5-435.7,332.5s-292.4-204.4-415.3-254c-164.1-66.1-283.7,35.1-385,102.1
			c-58.3,38.5-138.6,24.2-210.6,30.7c-63,5.7-114.9,31.1-151.7,65.1c-86.4,80.1-215.9,99.6-293-4.1
			c-76.6-102.9-212.8-262.5-404-282.6c-175.2-18.4-326,119.6-376.5,214.3c-59.2,111-335.6,309.9-495.2,357
			c-187.5,55.4-470.7,15.3-576.7-71.2L5288.3,736.8z M5286.1,735.7c-60.8,60.8-147.3,80.6-190.6,76.3
			c-116.4-11.8-233.8-412.3-446.9-412.3c-213.1,0-265.2,437.8-505,437.8c-239.9,0-385.6-637.2-680.5-637.2
			c-154.8,0-299.3,93.3-372.3,175c-66.4,74.3-253.1,180-394.6,161.4c-123.7-16.3-252-148.8-367.3-53.4
			c-82.9,68.7-155.9,379-418.1,379c-262.2,0-199.4-619.3-465.7-619.3c-266.5,0-216.1,324.2-436.5,324.2
			c-220.5,0-294.6-199.3-414.4-247.6c-160.2-64.8-284.2,33.8-382.8,99.1c-56.8,37.6-138.6,23.6-208.8,30
			c-61.4,5.6-114.9,30.4-150.7,63.5c-84.2,78.1-216.4,97.1-291.6-4c-74.6-100.4-217.3-256-403.7-275.6
			c-170.8-18-326.4,116.6-375.6,208.9c-57.8,108.2-339,302.2-494.8,348.1c-182.9,54-468.9,15-572-69.3L5286.1,735.7z M5283.9,734.6
			c-59.2,59.2-147.3,78.6-189.7,74.2c-113.4-11.5-241.2-401.8-448.8-401.8c-207.6,0-273.2,426.5-506.9,426.5
			c-233.6,0-396.5-620.9-683.8-620.9c-150.9,0-299.6,90.9-370.7,170.4c-64.7,72.4-254.7,175.4-392.4,157.3
			c-120.6-15.8-252.5-145.1-364.8-52.1c-80.9,67-164.6,369.2-420.2,369.2c-255.5,0-213.4-603.5-472.9-603.5
			c-259.5,0-222.5,315.9-437.3,315.9C781.6,570,699.8,375.8,583,328.8c-155.9-62.8-284.1,33.3-380.3,97
			c-55.4,36.6-138.6,23-207,29.2c-59.8,5.5-115.1,29.6-150,62c-82,76.1-216.8,94.6-290.2-4c-72.7-97.8-221.7-249.4-403.4-268.5
			c-166.4-17.5-326.8,113.7-374.8,203.6c-56.2,105.5-342.6,294.3-494.3,339.1c-178.2,52.5-466.8,14.7-567.5-67.6L5283.9,734.6z
			 M5281.8,733.6c-57.8,57.6-147.3,76.5-188.6,72.3c-110.4-11.1-248.7-391.2-450.8-391.2c-202.1,0-281.2,415.3-508.8,415.3
			s-407.3-604.6-687.1-604.6c-147,0-299.8,88.6-369,166c-63.1,70.5-256.3,170.8-390.4,153.1c-117.4-15.3-253-141.2-362.1-50.7
			c-78.7,65.1-173.2,359.6-422.1,359.6s-227.4-587.6-480-587.6c-252.7,0-228.9,307.5-438.1,307.5S686.2,384.2,572.3,338.4
			c-151.7-61.2-284.2,32.5-377.9,94.4c-54,35.7-138.8,22.4-205.2,28.4c-58.3,5.3-115.1,28.8-149.2,60.3
			c-79.8,74.1-217.5,92.1-288.8-3.9c-70.8-95.2-226.3-242.8-403.1-261.4c-162.2-17.1-327.2,110.6-373.9,198.3
			c-54.8,102.7-346.1,286.6-493.8,330.2c-173.5,51.2-464.9,14.2-562.9-65.8L5281.8,733.6z"/>
		<path class="st2" d="M5293.8,739.3c-67,67.1-147.1,89-195,84.1c-128.3-13-204.1-455-439.2-455c-234.9,0-233.3,482.9-497.9,482.9
			s-342.3-703.1-667.5-703.1c-170.8,0-298.7,102.9-379.2,193c-73.3,82-247,198.6-403.1,178.1c-136.4-17.8-250.4-164.3-377.5-59
			c-91.4,75.8-121.2,418.1-410.4,418.1s-143.5-683.3-437.3-683.3c-293.8,0-190.5,357.6-433.7,357.6C809.9,552.8,767,333,634.8,279.6
			c-176.3-71.1-283.3,37.7-392.2,109.8c-62.7,41.5-138.5,26-215.9,33.1C-41,428.7-88,456-127.5,492.7
			c-92.8,86.2-214.3,107.1-297.4-4.4c-82.3-110.7-199.6-282.4-405.3-304c-188.4-19.8-324.9,128.7-379.2,230.5
			c-63.8,119.4-325.2,333.3-497,384c-201.6,59.6-476.6,16.6-590.6-76.5 M5306.6,745.6c-76.5,76.4-147,101.4-201.5,95.8
			c-146.2-14.8-159.5-518.4-427.3-518.4c-267.7,0-185.4,550.3-486.8,550.3c-301.3,0-277.1-801.2-647.7-801.2
			c-194.6,0-297.6,117.3-389.2,219.9c-83.5,93.4-237.9,226.2-415.5,202.9c-155.6-20.3-247.9-187.1-392.7-67.2
			c-104.3,86.4-69.1,476.4-398.7,476.4c-329.6,0-59.7-778.7-394.4-778.7c-334.8,0-152,407.6-429.1,407.6S850.7,282.5,700.1,221.8
			c-201-81.1-282.3,43-406.4,125.2c-71.4,47.3-138.3,29.7-226.4,37.7c-77.3,7-114.2,38.1-159.2,79.9
			c-105.8,98.2-211.2,122.1-305.7-5.1c-93.9-126.2-172.9-321.8-407.2-346.4c-214.8-22.5-322.5,146.7-384.5,262.7
			c-72.5,136.1-304.1,379.8-499.8,437.7c-229.9,67.9-488,18.9-617.9-87.2L5306.6,745.6z M5304.5,744.6
			c-74.9,74.8-147,99.4-200.5,93.9C4960.7,824,4937,330.7,4674.6,330.7c-262.2,0-193.5,539.1-488.6,539.1
			c-295.4,0-288-784.9-651-784.9c-190.6,0-297.7,114.9-387.5,215.4c-81.8,91.5-239.3,221.7-413.4,198.8
			c-152.5-20-248.4-183.4-390.2-65.8c-102.1,84.6-77.9,466.8-400.7,466.8s-73.6-762.8-401.5-762.8c-328,0-158.4,399.3-429.9,399.3
			c-271.5,0-275.1-245.4-422.9-305c-196.9-79.4-282.5,42.2-404,122.5c-70,46.3-138.3,29.1-224.7,36.9C-15.4,398-54,428.5-98.2,469.4
			c-103.6,96.2-211.7,119.6-304.3-5C-494.3,340.8-579.7,149.1-809.3,125c-210.2-22.2-322.8,143.6-383.4,257.3
			c-71.1,133.3-307.6,372.1-499.3,428.7c-225.2,66.5-486.1,18.5-613.3-85.5L5304.5,744.6z M5302.4,743.6
			c-73.3,73.3-147,97.2-199.4,92c-140.2-14.2-174.5-497.2-431.2-497.2c-256.9,0-201.3,527.9-490.5,527.9
			c-289.1,0-298.8-768.5-654.3-768.5c-186.7,0-297.9,112.5-385.9,211c-80.1,89.6-240.9,217-411.4,194.7
			c-149.2-19.6-248.9-179.5-387.7-64.5c-100,82.9-86.5,457-402.6,457s-87.6-746.9-408.7-746.9c-321.1,0-164.9,391-430.7,391
			S822.6,299.8,678,241.4c-192.8-77.8-282.6,41.3-401.7,120c-68.5,45.4-138.3,28.4-223,36.2c-74.1,6.7-114.3,36.6-157.5,76.6
			c-101.4,94.2-212.1,117.1-302.9-4.9c-90-121-181.8-308.6-406.5-332.3c-206-21.6-323.3,140.6-382.7,251.9
			c-69.6,130.5-311.1,364.4-498.9,419.7c-220.5,65-484.3,18.1-608.8-83.7L5302.4,743.6z M5300.2,742.4c-71.8,71.7-147,95.2-198.3,90
			c-137.2-13.9-181.8-486.7-433.2-486.7s-209.3,516.7-492.3,516.7c-283,0-309.6-752.1-657.6-752.1c-182.6,0-298,110.2-384.2,206.4
			c-78.4,87.7-242.4,212.5-409.4,190.5c-146-19.1-249.2-175.6-385-63.1c-97.8,81.1-95.1,447.3-404.6,447.3
			c-309.3,0-101.6-731.1-415.8-731.1c-314.3,0-171.3,382.7-431.3,382.7c-260.2,0-279.5-235.2-421-292.3
			c-188.7-76.1-282.8,40.4-399.3,117.4c-67,44.3-138.5,27.9-221.2,35.4c-72.4,6.6-114.3,35.8-156.6,75
			c-99.2,92.2-212.8,114.6-301.5-4.8c-88.1-118.5-186.2-302.1-406.2-325.2c-201.6-21.1-323.8,137.7-381.9,246.6
			c-68.1,127.8-314.7,356.6-498.4,410.8c-215.7,63.7-482.4,17.7-604.2-81.9L5300.2,742.4z M5298,741.4c-70.2,70.1-147,93.1-197.2,88
			c-134.2-13.6-189.2-476.1-435.1-476.1c-245.9,0-217.3,505.4-494.1,505.4c-276.8,0-320.6-735.8-660.9-735.8
			c-178.7,0-298.3,107.8-382.5,202c-76.6,85.8-244,207.8-407.1,186.4c-142.9-18.8-249.7-171.9-382.5-61.7
			c-95.8,79.4-103.8,437.6-406.5,437.6c-302.7,0-115.6-715.2-423-715.2c-307.4,0-177.8,374.4-432.1,374.4
			c-254.5,0-281.7-230.1-420-285.9c-184.7-74.5-283,39.4-397,114.9c-65.6,43.4-138.5,27.3-219.4,34.6c-71,6.5-114.5,35-155.8,73.4
			c-97,90.2-213.2,112.1-300.1-4.7C-501.5,363-606,183.2-821.2,160.6c-197.2-20.7-324.1,134.7-380.9,241.2
			c-66.7,124.9-318.1,348.9-497.9,401.9c-211,62.3-480.5,17.3-599.7-80.1L5298,741.4z M5296,740.4c-68.6,68.7-147.1,91.1-196.1,86.1
			c-131.3-13.3-196.8-465.5-437.1-465.5c-240.4,0-225.3,494.2-496,494.2c-270.7,0-331.5-719.4-664.2-719.4
			c-174.8,0-298.5,105.4-380.9,197.5c-75.1,83.9-245.6,203.2-405.1,182.2c-139.7-18.3-250-168-380-60.4
			c-93.6,77.5-112.6,427.9-408.6,427.9c-296,0-129.5-699.3-430.2-699.3c-300.7,0-184,365.9-432.9,365.9
			c-248.9,0-283.9-225-419.1-279.5c-180.6-72.8-283.1,38.7-394.6,112.3c-64.2,42.4-138.5,26.6-217.6,33.9
			c-69.2,6.4-114.6,34.2-155,71.7c-95,88.2-213.9,109.6-298.7-4.5c-84.3-113.2-195.2-289-405.6-311
			c-192.8-20.2-324.6,131.6-380.1,235.9c-65.2,122.2-321.6,341-497.4,393c-206.3,60.9-478.4,16.9-595.1-78.3L5296,740.4z"/>
		<path class="st2" d="M5309.2,747.2c-78,78-146.8,103.5-202.6,97.8c-149.2-15.1-152-529.1-425.2-529.1
			c-273.2,0-177.4,561.7-484.9,561.7c-307.4,0-266.1-817.7-644.3-817.7c-198.5,0-297.2,119.7-390.8,224.4
			c-85.3,95.4-236.3,230.9-417.5,207.1c-158.7-20.8-247.5-191-395.2-68.6c-106.3,88.1-60.4,486.3-396.6,486.3
			s-45.7-794.8-387.2-794.8s-145.6,416-428.3,416c-282.6,0-270.9-255.8-424.6-317.7C506.8,130,429.7,256.6,303.2,340.4
			C230.3,388.6,165,370.6,75,378.8c-78.8,7.2-114.2,38.9-160,81.5c-107.9,100.3-210.6,124.6-307.1-5.2
			c-95.8-128.8-168.3-328.4-407.5-353.6c-219-23.1-322,149.7-385.3,268.1c-74.1,138.9-300.5,387.7-500.3,446.7
			c-234.4,69.2-489.9,19.2-622.3-89 M5311.4,748.2c-79.6,79.6-146.8,105.5-203.6,99.8c-152.2-15.5-144.6-539.7-423.3-539.7
			c-278.6,0-169.4,573-483,573c-313.7,0-255.3-834-641-834c-202.6,0-297.1,122.1-392.5,229c-86.8,97.2-234.8,235.6-419.6,211.3
			c-161.9-21.3-247.2-194.9-397.7-69.9c-108.5,89.9-51.8,496-394.8,496s-31.7-810.7-380-810.7c-348.4,0-139.3,424.3-427.6,424.3
			S879.6,266.5,722.9,203.3c-209.1-84.4-282,44.8-411.1,130.3c-74.3,49.2-138.2,30.9-229.9,39.2C1.6,380-32.1,412.4-78.8,456
			c-110.1,102.2-210.1,127.1-308.4-5.2c-97.7-131.3-163.9-335-407.8-360.6c-223.6-23.5-321.7,152.7-386.1,273.4
			c-75.5,141.6-297.1,395.4-500.7,455.5c-239.1,70.6-491.8,19.7-626.8-90.8L5311.4,748.2z"/>
	</g>
</g>
</svg>
